<svg width="284" height="33" viewBox="0 0 284 33" fill="none" xmlns="http://www.w3.org/2000/svg">
<circle cx="8" cy="25" r="8" fill="black"/>
<circle cx="142" cy="25" r="8" fill="#C4C4C4" fill-opacity="0.4"/>
<circle cx="276" cy="25" r="8" fill="#C4C4C4" fill-opacity="0.4"/>
<line x1="15.9997" y1="24.5" x2="134.001" y2="24.4194" stroke="#C4C4C4" stroke-opacity="0.4"/>
<line x1="150" y1="24.5806" x2="268.001" y2="24.5" stroke="#C4C4C4" stroke-opacity="0.4"/>
<path d="M2.99316 11.1172C2.34212 11.1172 1.79036 10.9854 1.33789 10.7217C0.888672 10.4548 0.597331 10.1048 0.463867 9.67188C0.431315 9.56445 0.415039 9.46191 0.415039 9.36426C0.415039 9.22428 0.450846 9.11361 0.522461 9.03223C0.597331 8.95085 0.696615 8.91016 0.820312 8.91016C1.03516 8.91016 1.17676 9.02572 1.24512 9.25684C1.34928 9.61165 1.55924 9.87858 1.875 10.0576C2.19401 10.2367 2.58301 10.3262 3.04199 10.3262C3.52051 10.3262 3.91439 10.2139 4.22363 9.98926C4.53613 9.76465 4.69238 9.47819 4.69238 9.12988C4.69238 8.82715 4.58333 8.57812 4.36523 8.38281C4.15039 8.1875 3.80371 8.03776 3.3252 7.93359L2.54395 7.7627C1.84733 7.6097 1.33626 7.3737 1.01074 7.05469C0.685221 6.73568 0.522461 6.32227 0.522461 5.81445C0.522461 5.23503 0.753581 4.76139 1.21582 4.39355C1.68132 4.02246 2.27865 3.83691 3.00781 3.83691C3.60026 3.83691 4.11296 3.97689 4.5459 4.25684C4.97884 4.53353 5.25879 4.90788 5.38574 5.37988C5.40202 5.43848 5.41016 5.51172 5.41016 5.59961C5.41016 5.7168 5.37272 5.81283 5.29785 5.8877C5.22298 5.95931 5.12695 5.99512 5.00977 5.99512C4.79492 5.99512 4.64844 5.88118 4.57031 5.65332C4.33594 4.96973 3.80697 4.62793 2.9834 4.62793C2.53092 4.62793 2.1582 4.7321 1.86523 4.94043C1.57227 5.14551 1.42578 5.42383 1.42578 5.77539C1.42578 6.06185 1.53158 6.29948 1.74316 6.48828C1.95475 6.67708 2.29492 6.82194 2.76367 6.92285L3.54492 7.09375C4.27083 7.25326 4.79329 7.48438 5.1123 7.78711C5.43457 8.08984 5.5957 8.49349 5.5957 8.99805C5.5957 9.64909 5.3597 10.165 4.8877 10.5459C4.41569 10.9268 3.78418 11.1172 2.99316 11.1172ZM8.61816 11.0879C7.86947 11.0879 7.28516 10.8584 6.86523 10.3994C6.44857 9.94043 6.24023 9.30078 6.24023 8.48047C6.24023 7.67969 6.44857 7.03841 6.86523 6.55664C7.28516 6.07487 7.84505 5.83398 8.54492 5.83398C9.19596 5.83398 9.72656 6.05371 10.1367 6.49316C10.5501 6.93262 10.7568 7.50065 10.7568 8.19727C10.7568 8.35026 10.7145 8.4707 10.6299 8.55859C10.5485 8.64648 10.4346 8.69043 10.2881 8.69043H7.11426C7.11426 9.20475 7.24609 9.61003 7.50977 9.90625C7.77344 10.2025 8.13151 10.3506 8.58398 10.3506C8.88672 10.3506 9.14062 10.292 9.3457 10.1748C9.55404 10.0544 9.75749 9.84928 9.95605 9.55957C10.0374 9.44564 10.1432 9.38867 10.2734 9.38867C10.3874 9.38867 10.4785 9.42285 10.5469 9.49121C10.6152 9.55957 10.6494 9.64909 10.6494 9.75977C10.6494 9.82487 10.6283 9.90788 10.5859 10.0088C10.4232 10.3538 10.1709 10.6208 9.8291 10.8096C9.4873 10.9951 9.08366 11.0879 8.61816 11.0879ZM7.11914 8.02637H9.87793C9.86816 7.58691 9.73958 7.23535 9.49219 6.97168C9.24479 6.70475 8.92415 6.57129 8.53027 6.57129C8.13314 6.57129 7.80436 6.70475 7.54395 6.97168C7.28678 7.23861 7.14518 7.59017 7.11914 8.02637ZM12.3877 10.9609C12.3096 11.0456 12.2087 11.0879 12.085 11.0879C11.9613 11.0879 11.8587 11.0456 11.7773 10.9609C11.6992 10.8763 11.6602 10.7673 11.6602 10.6338V4.32031C11.6602 4.18685 11.6992 4.0778 11.7773 3.99316C11.8587 3.90853 11.9613 3.86621 12.085 3.86621C12.2087 3.86621 12.3096 3.90853 12.3877 3.99316C12.4691 4.0778 12.5098 4.18685 12.5098 4.32031V10.6338C12.5098 10.7673 12.4691 10.8763 12.3877 10.9609ZM15.7861 11.0879C15.0374 11.0879 14.4531 10.8584 14.0332 10.3994C13.6165 9.94043 13.4082 9.30078 13.4082 8.48047C13.4082 7.67969 13.6165 7.03841 14.0332 6.55664C14.4531 6.07487 15.013 5.83398 15.7129 5.83398C16.3639 5.83398 16.8945 6.05371 17.3047 6.49316C17.7181 6.93262 17.9248 7.50065 17.9248 8.19727C17.9248 8.35026 17.8825 8.4707 17.7979 8.55859C17.7165 8.64648 17.6025 8.69043 17.4561 8.69043H14.2822C14.2822 9.20475 14.4141 9.61003 14.6777 9.90625C14.9414 10.2025 15.2995 10.3506 15.752 10.3506C16.0547 10.3506 16.3086 10.292 16.5137 10.1748C16.722 10.0544 16.9255 9.84928 17.124 9.55957C17.2054 9.44564 17.3112 9.38867 17.4414 9.38867C17.5553 9.38867 17.6465 9.42285 17.7148 9.49121C17.7832 9.55957 17.8174 9.64909 17.8174 9.75977C17.8174 9.82487 17.7962 9.90788 17.7539 10.0088C17.5911 10.3538 17.3389 10.6208 16.9971 10.8096C16.6553 10.9951 16.2516 11.0879 15.7861 11.0879ZM14.2871 8.02637H17.0459C17.0361 7.58691 16.9076 7.23535 16.6602 6.97168C16.4128 6.70475 16.0921 6.57129 15.6982 6.57129C15.3011 6.57129 14.9723 6.70475 14.7119 6.97168C14.4548 7.23861 14.3132 7.59017 14.2871 8.02637ZM20.8789 11.0879C20.1725 11.0879 19.6045 10.8519 19.1748 10.3799C18.7484 9.90462 18.5352 9.26823 18.5352 8.4707C18.5352 7.67318 18.7484 7.03516 19.1748 6.55664C19.6012 6.07487 20.166 5.83398 20.8691 5.83398C21.3444 5.83398 21.7692 5.9528 22.1436 6.19043C22.5212 6.42806 22.7588 6.72428 22.8564 7.0791C22.876 7.14095 22.8857 7.20117 22.8857 7.25977C22.8857 7.3737 22.8532 7.46484 22.7881 7.5332C22.723 7.59831 22.6351 7.63086 22.5244 7.63086C22.4333 7.63086 22.3568 7.6097 22.2949 7.56738C22.2363 7.52181 22.1777 7.44368 22.1191 7.33301C21.8522 6.83171 21.4388 6.58105 20.8789 6.58105C20.4362 6.58105 20.0781 6.75358 19.8047 7.09863C19.5345 7.44043 19.3994 7.89453 19.3994 8.46094C19.3994 9.03711 19.5345 9.49447 19.8047 9.83301C20.0781 10.1715 20.4362 10.3408 20.8789 10.3408C21.1751 10.3408 21.4225 10.279 21.6211 10.1553C21.8197 10.0283 21.9873 9.83952 22.124 9.58887C22.1859 9.47493 22.2445 9.39681 22.2998 9.35449C22.3551 9.31217 22.43 9.29102 22.5244 9.29102C22.6351 9.29102 22.723 9.3252 22.7881 9.39355C22.8564 9.46191 22.8906 9.55143 22.8906 9.66211C22.8906 9.7207 22.8776 9.79232 22.8516 9.87695C22.7279 10.2318 22.4821 10.5231 22.1143 10.751C21.7497 10.9756 21.3379 11.0879 20.8789 11.0879ZM24.0674 9.82812V6.62012H23.6426C23.5221 6.62012 23.4277 6.59082 23.3594 6.53223C23.2943 6.47038 23.2617 6.38249 23.2617 6.26855C23.2617 6.15788 23.2943 6.07324 23.3594 6.01465C23.4277 5.9528 23.5221 5.92188 23.6426 5.92188H24.0674V5.05273C24.0674 4.91927 24.1064 4.81022 24.1846 4.72559C24.266 4.64095 24.3685 4.59863 24.4922 4.59863C24.6159 4.59863 24.7168 4.64095 24.7949 4.72559C24.8763 4.81022 24.917 4.91927 24.917 5.05273V5.92188H25.5713C25.6917 5.92188 25.7845 5.9528 25.8496 6.01465C25.918 6.07324 25.9521 6.15788 25.9521 6.26855C25.9521 6.38249 25.918 6.47038 25.8496 6.53223C25.7845 6.59082 25.6917 6.62012 25.5713 6.62012H24.917V9.64258C24.917 9.86068 24.9609 10.0234 25.0488 10.1309C25.1367 10.235 25.2848 10.2936 25.4932 10.3066L25.5664 10.3115C25.8366 10.3311 25.9717 10.4417 25.9717 10.6436C25.9717 10.7803 25.9245 10.8812 25.8301 10.9463C25.7389 11.0081 25.5794 11.0391 25.3516 11.0391H25.2979C24.4775 11.0391 24.0674 10.6354 24.0674 9.82812ZM31.5332 10.9463C31.4551 11.0277 31.3493 11.0684 31.2158 11.0684C31.0824 11.0684 30.9749 11.0277 30.8936 10.9463C30.8154 10.8649 30.7764 10.7542 30.7764 10.6143V4.74512H28.9014C28.7777 4.74512 28.6768 4.70931 28.5986 4.6377C28.5205 4.56283 28.4814 4.4668 28.4814 4.34961C28.4814 4.23242 28.5205 4.13802 28.5986 4.06641C28.6768 3.99154 28.7777 3.9541 28.9014 3.9541H33.5303C33.654 3.9541 33.7549 3.99154 33.833 4.06641C33.9111 4.13802 33.9502 4.23242 33.9502 4.34961C33.9502 4.4668 33.9111 4.56283 33.833 4.6377C33.7549 4.70931 33.654 4.74512 33.5303 4.74512H31.6553V10.6143C31.6553 10.7542 31.6146 10.8649 31.5332 10.9463ZM34.8975 5.06738C34.7542 5.06738 34.6305 5.0153 34.5264 4.91113C34.4222 4.80697 34.3701 4.68327 34.3701 4.54004C34.3701 4.39355 34.4222 4.26986 34.5264 4.16895C34.6305 4.06478 34.7542 4.0127 34.8975 4.0127C35.0439 4.0127 35.1693 4.06478 35.2734 4.16895C35.3776 4.26986 35.4297 4.39355 35.4297 4.54004C35.4297 4.68327 35.3776 4.80697 35.2734 4.91113C35.1693 5.0153 35.0439 5.06738 34.8975 5.06738ZM35.2002 10.9609C35.1221 11.0456 35.0212 11.0879 34.8975 11.0879C34.7738 11.0879 34.6712 11.0456 34.5898 10.9609C34.5117 10.8763 34.4727 10.7673 34.4727 10.6338V6.28809C34.4727 6.15462 34.5117 6.04557 34.5898 5.96094C34.6712 5.8763 34.7738 5.83398 34.8975 5.83398C35.0212 5.83398 35.1221 5.8763 35.2002 5.96094C35.2816 6.04557 35.3223 6.15462 35.3223 6.28809V10.6338C35.3223 10.7673 35.2816 10.8763 35.2002 10.9609ZM38.5645 11.0879C37.8581 11.0879 37.29 10.8519 36.8604 10.3799C36.4339 9.90462 36.2207 9.26823 36.2207 8.4707C36.2207 7.67318 36.4339 7.03516 36.8604 6.55664C37.2868 6.07487 37.8516 5.83398 38.5547 5.83398C39.0299 5.83398 39.4548 5.9528 39.8291 6.19043C40.2067 6.42806 40.4443 6.72428 40.542 7.0791C40.5615 7.14095 40.5713 7.20117 40.5713 7.25977C40.5713 7.3737 40.5387 7.46484 40.4736 7.5332C40.4085 7.59831 40.3206 7.63086 40.21 7.63086C40.1188 7.63086 40.0423 7.6097 39.9805 7.56738C39.9219 7.52181 39.8633 7.44368 39.8047 7.33301C39.5378 6.83171 39.1243 6.58105 38.5645 6.58105C38.1217 6.58105 37.7637 6.75358 37.4902 7.09863C37.2201 7.44043 37.085 7.89453 37.085 8.46094C37.085 9.03711 37.2201 9.49447 37.4902 9.83301C37.7637 10.1715 38.1217 10.3408 38.5645 10.3408C38.8607 10.3408 39.1081 10.279 39.3066 10.1553C39.5052 10.0283 39.6729 9.83952 39.8096 9.58887C39.8714 9.47493 39.93 9.39681 39.9854 9.35449C40.0407 9.31217 40.1156 9.29102 40.21 9.29102C40.3206 9.29102 40.4085 9.3252 40.4736 9.39355C40.542 9.46191 40.5762 9.55143 40.5762 9.66211C40.5762 9.7207 40.5632 9.79232 40.5371 9.87695C40.4134 10.2318 40.1676 10.5231 39.7998 10.751C39.4352 10.9756 39.0234 11.0879 38.5645 11.0879ZM42.251 10.9609C42.1729 11.0456 42.0719 11.0879 41.9482 11.0879C41.8245 11.0879 41.722 11.0456 41.6406 10.9609C41.5625 10.8763 41.5234 10.7673 41.5234 10.6338V4.32031C41.5234 4.18685 41.5625 4.0778 41.6406 3.99316C41.722 3.90853 41.8245 3.86621 41.9482 3.86621C42.0719 3.86621 42.1729 3.90853 42.251 3.99316C42.3324 4.0778 42.373 4.18685 42.373 4.32031V8.17773L44.6436 5.97559C44.738 5.88118 44.8405 5.83398 44.9512 5.83398C45.0521 5.83398 45.1367 5.86979 45.2051 5.94141C45.2767 6.00977 45.3125 6.09115 45.3125 6.18555C45.3125 6.28971 45.2669 6.38574 45.1758 6.47363L43.4473 8.11426L45.3564 10.4385C45.4281 10.5264 45.4639 10.6224 45.4639 10.7266C45.4639 10.8275 45.4264 10.9137 45.3516 10.9854C45.2767 11.0537 45.1839 11.0879 45.0732 11.0879C44.9495 11.0879 44.8438 11.0358 44.7559 10.9316L42.8467 8.63672L42.373 9.08594V10.6338C42.373 10.7673 42.3324 10.8763 42.251 10.9609ZM48.2178 11.0879C47.4691 11.0879 46.8848 10.8584 46.4648 10.3994C46.0482 9.94043 45.8398 9.30078 45.8398 8.48047C45.8398 7.67969 46.0482 7.03841 46.4648 6.55664C46.8848 6.07487 47.4447 5.83398 48.1445 5.83398C48.7956 5.83398 49.3262 6.05371 49.7363 6.49316C50.1497 6.93262 50.3564 7.50065 50.3564 8.19727C50.3564 8.35026 50.3141 8.4707 50.2295 8.55859C50.1481 8.64648 50.0342 8.69043 49.8877 8.69043H46.7139C46.7139 9.20475 46.8457 9.61003 47.1094 9.90625C47.373 10.2025 47.7311 10.3506 48.1836 10.3506C48.4863 10.3506 48.7402 10.292 48.9453 10.1748C49.1536 10.0544 49.3571 9.84928 49.5557 9.55957C49.637 9.44564 49.7428 9.38867 49.873 9.38867C49.987 9.38867 50.0781 9.42285 50.1465 9.49121C50.2148 9.55957 50.249 9.64909 50.249 9.75977C50.249 9.82487 50.2279 9.90788 50.1855 10.0088C50.0228 10.3538 49.7705 10.6208 49.4287 10.8096C49.0869 10.9951 48.6833 11.0879 48.2178 11.0879ZM46.7188 8.02637H49.4775C49.4678 7.58691 49.3392 7.23535 49.0918 6.97168C48.8444 6.70475 48.5238 6.57129 48.1299 6.57129C47.7327 6.57129 47.404 6.70475 47.1436 6.97168C46.8864 7.23861 46.7448 7.59017 46.7188 8.02637ZM51.4893 9.82812V6.62012H51.0645C50.944 6.62012 50.8496 6.59082 50.7812 6.53223C50.7161 6.47038 50.6836 6.38249 50.6836 6.26855C50.6836 6.15788 50.7161 6.07324 50.7812 6.01465C50.8496 5.9528 50.944 5.92188 51.0645 5.92188H51.4893V5.05273C51.4893 4.91927 51.5283 4.81022 51.6064 4.72559C51.6878 4.64095 51.7904 4.59863 51.9141 4.59863C52.0378 4.59863 52.1387 4.64095 52.2168 4.72559C52.2982 4.81022 52.3389 4.91927 52.3389 5.05273V5.92188H52.9932C53.1136 5.92188 53.2064 5.9528 53.2715 6.01465C53.3398 6.07324 53.374 6.15788 53.374 6.26855C53.374 6.38249 53.3398 6.47038 53.2715 6.53223C53.2064 6.59082 53.1136 6.62012 52.9932 6.62012H52.3389V9.64258C52.3389 9.86068 52.3828 10.0234 52.4707 10.1309C52.5586 10.235 52.7067 10.2936 52.915 10.3066L52.9883 10.3115C53.2585 10.3311 53.3936 10.4417 53.3936 10.6436C53.3936 10.7803 53.3464 10.8812 53.252 10.9463C53.1608 11.0081 53.0013 11.0391 52.7734 11.0391H52.7197C51.8994 11.0391 51.4893 10.6354 51.4893 9.82812Z" fill="black"/>
<path d="M123.44 9.94629C123.362 10.0277 123.257 10.0684 123.123 10.0684C122.99 10.0684 122.882 10.0277 122.801 9.94629C122.723 9.86491 122.684 9.75423 122.684 9.61426V3.4082C122.684 3.26823 122.723 3.15755 122.801 3.07617C122.882 2.99479 122.99 2.9541 123.123 2.9541H125.198C125.859 2.9541 126.399 3.16569 126.819 3.58887C127.243 4.00879 127.454 4.55078 127.454 5.21484C127.454 5.88216 127.243 6.42741 126.819 6.85059C126.396 7.27376 125.853 7.48535 125.188 7.48535H123.562V9.61426C123.562 9.75423 123.522 9.86491 123.44 9.94629ZM123.562 6.7041H124.969C125.47 6.7041 125.859 6.57389 126.136 6.31348C126.412 6.0498 126.551 5.68359 126.551 5.21484C126.551 4.74609 126.412 4.38314 126.136 4.12598C125.862 3.86556 125.473 3.73535 124.969 3.73535H123.562V6.7041ZM129.373 10.0879C128.868 10.0879 128.46 9.94792 128.147 9.66797C127.838 9.38802 127.684 9.02018 127.684 8.56445C127.684 8.12826 127.843 7.77995 128.162 7.51953C128.484 7.25911 128.938 7.11263 129.524 7.08008L130.984 6.99707V6.57227C130.984 6.26302 130.887 6.02051 130.691 5.84473C130.496 5.66895 130.223 5.58105 129.871 5.58105C129.591 5.58105 129.354 5.63639 129.158 5.74707C128.966 5.85775 128.8 6.03678 128.66 6.28418C128.585 6.4209 128.468 6.48926 128.309 6.48926C128.198 6.48926 128.107 6.45508 128.035 6.38672C127.967 6.3151 127.933 6.22233 127.933 6.1084C127.933 5.99447 127.967 5.87728 128.035 5.75684C128.178 5.48014 128.419 5.25716 128.758 5.08789C129.1 4.91862 129.477 4.83398 129.891 4.83398C130.486 4.83398 130.958 4.98372 131.307 5.2832C131.658 5.58268 131.834 5.9847 131.834 6.48926V9.6582C131.834 9.78516 131.797 9.88932 131.722 9.9707C131.647 10.0488 131.551 10.0879 131.434 10.0879C131.313 10.0879 131.215 10.0488 131.141 9.9707C131.066 9.88932 131.028 9.78516 131.028 9.6582V9.12598H131.009C130.859 9.41569 130.634 9.64844 130.335 9.82422C130.035 10 129.715 10.0879 129.373 10.0879ZM129.563 9.36523C129.964 9.36523 130.301 9.24154 130.574 8.99414C130.848 8.74349 130.984 8.43587 130.984 8.07129V7.65625L129.622 7.73926C129.28 7.76204 129.015 7.84505 128.826 7.98828C128.641 8.13151 128.548 8.32357 128.548 8.56445C128.548 8.80534 128.641 8.99902 128.826 9.14551C129.012 9.29199 129.257 9.36523 129.563 9.36523ZM133.411 11.8994C133.206 11.8994 133.048 11.862 132.938 11.7871C132.827 11.7155 132.771 11.613 132.771 11.4795C132.771 11.3851 132.801 11.3086 132.859 11.25C132.921 11.1947 133.006 11.167 133.113 11.167C133.152 11.167 133.198 11.167 133.25 11.167C133.305 11.1702 133.356 11.1719 133.401 11.1719C133.779 11.1719 134.056 10.9017 134.231 10.3613L134.349 10.0049L132.601 5.44922C132.571 5.36784 132.557 5.29297 132.557 5.22461C132.557 5.10742 132.596 5.01302 132.674 4.94141C132.755 4.86979 132.858 4.83398 132.981 4.83398C133.18 4.83398 133.315 4.93815 133.387 5.14648L134.788 9.15039H134.803L136.209 5.14648C136.248 5.03255 136.299 4.9528 136.36 4.90723C136.422 4.8584 136.505 4.83398 136.609 4.83398C136.73 4.83398 136.829 4.87142 136.907 4.94629C136.985 5.0179 137.024 5.11068 137.024 5.22461C137.024 5.29297 137.01 5.36784 136.98 5.44922L135.105 10.3564C134.887 10.9391 134.655 11.3411 134.407 11.5625C134.163 11.7871 133.831 11.8994 133.411 11.8994ZM138.509 9.96094C138.431 10.0456 138.328 10.0879 138.201 10.0879C138.074 10.0879 137.972 10.0456 137.894 9.96094C137.815 9.87305 137.776 9.764 137.776 9.63379V5.26367C137.776 5.13672 137.814 5.03418 137.889 4.95605C137.964 4.87467 138.06 4.83398 138.177 4.83398C138.294 4.83398 138.39 4.87467 138.465 4.95605C138.54 5.03418 138.577 5.13672 138.577 5.26367V5.73242H138.597C138.72 5.45573 138.908 5.23763 139.158 5.07812C139.409 4.91536 139.702 4.83398 140.037 4.83398C140.382 4.83398 140.678 4.91862 140.926 5.08789C141.173 5.25391 141.352 5.49154 141.463 5.80078H141.482C141.622 5.49805 141.832 5.26204 142.112 5.09277C142.396 4.92025 142.716 4.83398 143.074 4.83398C143.576 4.83398 143.976 4.98535 144.275 5.28809C144.578 5.58757 144.729 5.98958 144.729 6.49414V9.63379C144.729 9.764 144.69 9.87305 144.612 9.96094C144.534 10.0456 144.432 10.0879 144.305 10.0879C144.178 10.0879 144.075 10.0456 143.997 9.96094C143.919 9.87305 143.88 9.764 143.88 9.63379V6.68945C143.88 6.34115 143.787 6.07096 143.602 5.87891C143.419 5.68359 143.16 5.58594 142.825 5.58594C142.49 5.58594 142.215 5.69824 142 5.92285C141.785 6.14421 141.678 6.42741 141.678 6.77246V9.63379C141.678 9.764 141.639 9.87305 141.561 9.96094C141.482 10.0456 141.38 10.0879 141.253 10.0879C141.126 10.0879 141.023 10.0456 140.945 9.96094C140.867 9.87305 140.828 9.764 140.828 9.63379V6.59668C140.828 6.29069 140.734 6.04655 140.545 5.86426C140.356 5.67871 140.104 5.58594 139.788 5.58594C139.453 5.58594 139.174 5.70312 138.953 5.9375C138.735 6.17188 138.626 6.46484 138.626 6.81641V9.63379C138.626 9.764 138.587 9.87305 138.509 9.96094ZM147.942 10.0879C147.194 10.0879 146.609 9.8584 146.189 9.39941C145.773 8.94043 145.564 8.30078 145.564 7.48047C145.564 6.67969 145.773 6.03841 146.189 5.55664C146.609 5.07487 147.169 4.83398 147.869 4.83398C148.52 4.83398 149.051 5.05371 149.461 5.49316C149.874 5.93262 150.081 6.50065 150.081 7.19727C150.081 7.35026 150.039 7.4707 149.954 7.55859C149.873 7.64648 149.759 7.69043 149.612 7.69043H146.438C146.438 8.20475 146.57 8.61003 146.834 8.90625C147.098 9.20247 147.456 9.35059 147.908 9.35059C148.211 9.35059 148.465 9.29199 148.67 9.1748C148.878 9.05436 149.082 8.84928 149.28 8.55957C149.362 8.44564 149.467 8.38867 149.598 8.38867C149.712 8.38867 149.803 8.42285 149.871 8.49121C149.939 8.55957 149.974 8.64909 149.974 8.75977C149.974 8.82487 149.952 8.90788 149.91 9.00879C149.747 9.35384 149.495 9.62077 149.153 9.80957C148.812 9.99512 148.408 10.0879 147.942 10.0879ZM146.443 7.02637H149.202C149.192 6.58691 149.064 6.23535 148.816 5.97168C148.569 5.70475 148.248 5.57129 147.854 5.57129C147.457 5.57129 147.129 5.70475 146.868 5.97168C146.611 6.23861 146.469 6.59017 146.443 7.02637ZM151.668 9.96094C151.59 10.0456 151.489 10.0879 151.365 10.0879C151.242 10.0879 151.139 10.0456 151.058 9.96094C150.979 9.8763 150.94 9.76725 150.94 9.63379V5.26367C150.94 5.13672 150.978 5.03418 151.053 4.95605C151.128 4.87467 151.224 4.83398 151.341 4.83398C151.458 4.83398 151.554 4.87467 151.629 4.95605C151.704 5.03418 151.741 5.13672 151.741 5.26367V5.73242H151.761C151.907 5.44922 152.117 5.22949 152.391 5.07324C152.664 4.91374 152.991 4.83398 153.372 4.83398C153.925 4.83398 154.357 5.00163 154.666 5.33691C154.975 5.66895 155.13 6.12467 155.13 6.7041V9.63379C155.13 9.76725 155.089 9.8763 155.008 9.96094C154.93 10.0456 154.829 10.0879 154.705 10.0879C154.581 10.0879 154.479 10.0456 154.397 9.96094C154.319 9.8763 154.28 9.76725 154.28 9.63379V6.85547C154.28 6.44206 154.183 6.12793 153.987 5.91309C153.792 5.69499 153.501 5.58594 153.113 5.58594C152.713 5.58594 152.392 5.71615 152.151 5.97656C151.91 6.23698 151.79 6.58203 151.79 7.01172V9.63379C151.79 9.76725 151.749 9.8763 151.668 9.96094ZM156.487 8.82812V5.62012H156.062C155.942 5.62012 155.848 5.59082 155.779 5.53223C155.714 5.47038 155.682 5.38249 155.682 5.26855C155.682 5.15788 155.714 5.07324 155.779 5.01465C155.848 4.9528 155.942 4.92188 156.062 4.92188H156.487V4.05273C156.487 3.91927 156.526 3.81022 156.604 3.72559C156.686 3.64095 156.788 3.59863 156.912 3.59863C157.036 3.59863 157.137 3.64095 157.215 3.72559C157.296 3.81022 157.337 3.91927 157.337 4.05273V4.92188H157.991C158.112 4.92188 158.204 4.9528 158.27 5.01465C158.338 5.07324 158.372 5.15788 158.372 5.26855C158.372 5.38249 158.338 5.47038 158.27 5.53223C158.204 5.59082 158.112 5.62012 157.991 5.62012H157.337V8.64258C157.337 8.86068 157.381 9.02344 157.469 9.13086C157.557 9.23503 157.705 9.29362 157.913 9.30664L157.986 9.31152C158.257 9.33105 158.392 9.44173 158.392 9.64355C158.392 9.78027 158.344 9.88118 158.25 9.94629C158.159 10.0081 157.999 10.0391 157.771 10.0391H157.718C156.897 10.0391 156.487 9.63542 156.487 8.82812Z" fill="#A4A4A4"/>
<path d="M229.584 10.1172C228.611 10.1172 227.838 9.79004 227.265 9.13574C226.695 8.47819 226.41 7.59115 226.41 6.47461C226.41 5.36784 226.698 4.48568 227.274 3.82812C227.851 3.16732 228.62 2.83691 229.584 2.83691C230.225 2.83691 230.79 2.98991 231.278 3.2959C231.77 3.60189 232.12 4.01855 232.328 4.5459C232.377 4.6696 232.401 4.78516 232.401 4.89258C232.401 5.01302 232.366 5.11068 232.294 5.18555C232.222 5.25716 232.126 5.29297 232.006 5.29297C231.791 5.29297 231.636 5.1709 231.542 4.92676C231.379 4.51986 231.122 4.20573 230.771 3.98438C230.422 3.75977 230.027 3.64746 229.584 3.64746C228.897 3.64746 228.347 3.90462 227.934 4.41895C227.52 4.93327 227.313 5.61849 227.313 6.47461C227.313 7.34049 227.519 8.02897 227.929 8.54004C228.339 9.05111 228.892 9.30664 229.589 9.30664C230.058 9.30664 230.463 9.20736 230.805 9.00879C231.146 8.81022 231.399 8.51725 231.562 8.12988C231.649 7.9248 231.786 7.82227 231.972 7.82227C232.089 7.82227 232.185 7.8597 232.26 7.93457C232.335 8.00944 232.372 8.10384 232.372 8.21777C232.372 8.35449 232.333 8.50098 232.255 8.65723C232.021 9.12923 231.675 9.49056 231.22 9.74121C230.767 9.99186 230.222 10.1172 229.584 10.1172ZM235.521 10.0879C234.812 10.0879 234.242 9.85189 233.812 9.37988C233.383 8.90462 233.168 8.26497 233.168 7.46094C233.168 6.6569 233.383 6.01888 233.812 5.54688C234.242 5.07161 234.812 4.83398 235.521 4.83398C236.228 4.83398 236.796 5.07161 237.226 5.54688C237.655 6.01888 237.87 6.6569 237.87 7.46094C237.87 8.26172 237.655 8.89974 237.226 9.375C236.796 9.85026 236.228 10.0879 235.521 10.0879ZM234.433 8.84277C234.703 9.1748 235.066 9.34082 235.521 9.34082C235.977 9.34082 236.339 9.17643 236.605 8.84766C236.872 8.51562 237.006 8.05339 237.006 7.46094C237.006 6.86849 236.872 6.40788 236.605 6.0791C236.339 5.74707 235.977 5.58105 235.521 5.58105C235.066 5.58105 234.703 5.74707 234.433 6.0791C234.166 6.41113 234.032 6.87174 234.032 7.46094C234.032 8.05013 234.166 8.51074 234.433 8.84277ZM239.457 9.96094C239.379 10.0456 239.278 10.0879 239.154 10.0879C239.031 10.0879 238.928 10.0456 238.847 9.96094C238.769 9.8763 238.729 9.76725 238.729 9.63379V5.26367C238.729 5.13672 238.767 5.03418 238.842 4.95605C238.917 4.87467 239.013 4.83398 239.13 4.83398C239.247 4.83398 239.343 4.87467 239.418 4.95605C239.493 5.03418 239.53 5.13672 239.53 5.26367V5.73242H239.55C239.696 5.44922 239.906 5.22949 240.18 5.07324C240.453 4.91374 240.78 4.83398 241.161 4.83398C241.715 4.83398 242.146 5.00163 242.455 5.33691C242.764 5.66895 242.919 6.12467 242.919 6.7041V9.63379C242.919 9.76725 242.878 9.8763 242.797 9.96094C242.719 10.0456 242.618 10.0879 242.494 10.0879C242.37 10.0879 242.268 10.0456 242.187 9.96094C242.108 9.8763 242.069 9.76725 242.069 9.63379V6.85547C242.069 6.44206 241.972 6.12793 241.776 5.91309C241.581 5.69499 241.29 5.58594 240.902 5.58594C240.502 5.58594 240.181 5.71615 239.94 5.97656C239.7 6.23698 239.579 6.58203 239.579 7.01172V9.63379C239.579 9.76725 239.538 9.8763 239.457 9.96094ZM245.009 9.96582C244.934 10.0472 244.831 10.0879 244.701 10.0879C244.571 10.0879 244.467 10.0472 244.389 9.96582C244.314 9.88444 244.276 9.77539 244.276 9.63867V5.62012H243.856C243.746 5.62012 243.658 5.58919 243.593 5.52734C243.528 5.46549 243.495 5.38086 243.495 5.27344C243.495 5.16927 243.528 5.08464 243.593 5.01953C243.658 4.95443 243.746 4.92188 243.856 4.92188H244.276V4.35547C244.276 3.87695 244.387 3.51725 244.608 3.27637C244.83 3.03548 245.15 2.91504 245.57 2.91504C245.792 2.91504 245.961 2.94922 246.078 3.01758C246.199 3.08594 246.259 3.18359 246.259 3.31055C246.259 3.4668 246.182 3.56608 246.029 3.6084C245.954 3.62793 245.867 3.6377 245.766 3.6377C245.541 3.6377 245.377 3.69792 245.272 3.81836C245.172 3.93555 245.121 4.12435 245.121 4.38477V4.92188H245.873C245.984 4.92188 246.072 4.95443 246.137 5.01953C246.202 5.08464 246.234 5.16927 246.234 5.27344C246.234 5.38086 246.202 5.46549 246.137 5.52734C246.072 5.58919 245.984 5.62012 245.873 5.62012H245.126V9.63867C245.126 9.77539 245.087 9.88444 245.009 9.96582ZM247.509 4.06738C247.366 4.06738 247.242 4.0153 247.138 3.91113C247.034 3.80697 246.981 3.68327 246.981 3.54004C246.981 3.39355 247.034 3.26986 247.138 3.16895C247.242 3.06478 247.366 3.0127 247.509 3.0127C247.655 3.0127 247.781 3.06478 247.885 3.16895C247.989 3.26986 248.041 3.39355 248.041 3.54004C248.041 3.68327 247.989 3.80697 247.885 3.91113C247.781 4.0153 247.655 4.06738 247.509 4.06738ZM247.812 9.96094C247.733 10.0456 247.632 10.0879 247.509 10.0879C247.385 10.0879 247.283 10.0456 247.201 9.96094C247.123 9.8763 247.084 9.76725 247.084 9.63379V5.28809C247.084 5.15462 247.123 5.04557 247.201 4.96094C247.283 4.8763 247.385 4.83398 247.509 4.83398C247.632 4.83398 247.733 4.8763 247.812 4.96094C247.893 5.04557 247.934 5.15462 247.934 5.28809V9.63379C247.934 9.76725 247.893 9.8763 247.812 9.96094ZM249.809 9.96094C249.73 10.0456 249.63 10.0879 249.506 10.0879C249.382 10.0879 249.28 10.0456 249.198 9.96094C249.12 9.8763 249.081 9.76725 249.081 9.63379V5.26367C249.081 5.13672 249.118 5.03418 249.193 4.95605C249.268 4.87467 249.364 4.83398 249.481 4.83398C249.599 4.83398 249.695 4.87467 249.77 4.95605C249.844 5.03418 249.882 5.13672 249.882 5.26367V5.75195H249.901C249.973 5.48828 250.119 5.27018 250.341 5.09766C250.562 4.92188 250.8 4.83398 251.054 4.83398C251.233 4.83398 251.366 4.87467 251.454 4.95605C251.526 5.02441 251.562 5.11882 251.562 5.23926C251.562 5.36947 251.518 5.46875 251.43 5.53711C251.345 5.60872 251.21 5.64453 251.024 5.64453C250.66 5.64453 250.386 5.75846 250.204 5.98633C250.022 6.21094 249.931 6.4974 249.931 6.8457V9.63379C249.931 9.76725 249.89 9.8763 249.809 9.96094ZM252.899 9.96094C252.821 10.0456 252.719 10.0879 252.592 10.0879C252.465 10.0879 252.362 10.0456 252.284 9.96094C252.206 9.87305 252.167 9.764 252.167 9.63379V5.26367C252.167 5.13672 252.204 5.03418 252.279 4.95605C252.354 4.87467 252.45 4.83398 252.567 4.83398C252.685 4.83398 252.781 4.87467 252.855 4.95605C252.93 5.03418 252.968 5.13672 252.968 5.26367V5.73242H252.987C253.111 5.45573 253.298 5.23763 253.549 5.07812C253.799 4.91536 254.092 4.83398 254.428 4.83398C254.773 4.83398 255.069 4.91862 255.316 5.08789C255.564 5.25391 255.743 5.49154 255.854 5.80078H255.873C256.013 5.49805 256.223 5.26204 256.503 5.09277C256.786 4.92025 257.107 4.83398 257.465 4.83398C257.966 4.83398 258.367 4.98535 258.666 5.28809C258.969 5.58757 259.12 5.98958 259.12 6.49414V9.63379C259.12 9.764 259.081 9.87305 259.003 9.96094C258.925 10.0456 258.822 10.0879 258.695 10.0879C258.568 10.0879 258.466 10.0456 258.388 9.96094C258.31 9.87305 258.271 9.764 258.271 9.63379V6.68945C258.271 6.34115 258.178 6.07096 257.992 5.87891C257.81 5.68359 257.551 5.58594 257.216 5.58594C256.881 5.58594 256.605 5.69824 256.391 5.92285C256.176 6.14421 256.068 6.42741 256.068 6.77246V9.63379C256.068 9.764 256.029 9.87305 255.951 9.96094C255.873 10.0456 255.771 10.0879 255.644 10.0879C255.517 10.0879 255.414 10.0456 255.336 9.96094C255.258 9.87305 255.219 9.764 255.219 9.63379V6.59668C255.219 6.29069 255.124 6.04655 254.936 5.86426C254.747 5.67871 254.494 5.58594 254.179 5.58594C253.843 5.58594 253.565 5.70312 253.344 5.9375C253.126 6.17188 253.017 6.46484 253.017 6.81641V9.63379C253.017 9.764 252.978 9.87305 252.899 9.96094ZM261.684 10.0879C261.179 10.0879 260.771 9.94792 260.458 9.66797C260.149 9.38802 259.994 9.02018 259.994 8.56445C259.994 8.12826 260.154 7.77995 260.473 7.51953C260.795 7.25911 261.249 7.11263 261.835 7.08008L263.295 6.99707V6.57227C263.295 6.26302 263.197 6.02051 263.002 5.84473C262.807 5.66895 262.533 5.58105 262.182 5.58105C261.902 5.58105 261.664 5.63639 261.469 5.74707C261.277 5.85775 261.111 6.03678 260.971 6.28418C260.896 6.4209 260.779 6.48926 260.619 6.48926C260.508 6.48926 260.417 6.45508 260.346 6.38672C260.277 6.3151 260.243 6.22233 260.243 6.1084C260.243 5.99447 260.277 5.87728 260.346 5.75684C260.489 5.48014 260.73 5.25716 261.068 5.08789C261.41 4.91862 261.788 4.83398 262.201 4.83398C262.797 4.83398 263.269 4.98372 263.617 5.2832C263.969 5.58268 264.145 5.9847 264.145 6.48926V9.6582C264.145 9.78516 264.107 9.88932 264.032 9.9707C263.957 10.0488 263.861 10.0879 263.744 10.0879C263.624 10.0879 263.526 10.0488 263.451 9.9707C263.376 9.88932 263.339 9.78516 263.339 9.6582V9.12598H263.319C263.17 9.41569 262.945 9.64844 262.646 9.82422C262.346 10 262.025 10.0879 261.684 10.0879ZM261.874 9.36523C262.274 9.36523 262.611 9.24154 262.885 8.99414C263.158 8.74349 263.295 8.43587 263.295 8.07129V7.65625L261.933 7.73926C261.591 7.76204 261.326 7.84505 261.137 7.98828C260.951 8.13151 260.858 8.32357 260.858 8.56445C260.858 8.80534 260.951 8.99902 261.137 9.14551C261.322 9.29199 261.568 9.36523 261.874 9.36523ZM265.497 8.82812V5.62012H265.072C264.952 5.62012 264.857 5.59082 264.789 5.53223C264.724 5.47038 264.691 5.38249 264.691 5.26855C264.691 5.15788 264.724 5.07324 264.789 5.01465C264.857 4.9528 264.952 4.92188 265.072 4.92188H265.497V4.05273C265.497 3.91927 265.536 3.81022 265.614 3.72559C265.696 3.64095 265.798 3.59863 265.922 3.59863C266.046 3.59863 266.146 3.64095 266.225 3.72559C266.306 3.81022 266.347 3.91927 266.347 4.05273V4.92188H267.001C267.121 4.92188 267.214 4.9528 267.279 5.01465C267.348 5.07324 267.382 5.15788 267.382 5.26855C267.382 5.38249 267.348 5.47038 267.279 5.53223C267.214 5.59082 267.121 5.62012 267.001 5.62012H266.347V8.64258C266.347 8.86068 266.391 9.02344 266.479 9.13086C266.566 9.23503 266.715 9.29362 266.923 9.30664L266.996 9.31152C267.266 9.33105 267.401 9.44173 267.401 9.64355C267.401 9.78027 267.354 9.88118 267.26 9.94629C267.169 10.0081 267.009 10.0391 266.781 10.0391H266.728C265.907 10.0391 265.497 9.63542 265.497 8.82812ZM268.71 4.06738C268.567 4.06738 268.443 4.0153 268.339 3.91113C268.235 3.80697 268.183 3.68327 268.183 3.54004C268.183 3.39355 268.235 3.26986 268.339 3.16895C268.443 3.06478 268.567 3.0127 268.71 3.0127C268.856 3.0127 268.982 3.06478 269.086 3.16895C269.19 3.26986 269.242 3.39355 269.242 3.54004C269.242 3.68327 269.19 3.80697 269.086 3.91113C268.982 4.0153 268.856 4.06738 268.71 4.06738ZM269.013 9.96094C268.935 10.0456 268.834 10.0879 268.71 10.0879C268.586 10.0879 268.484 10.0456 268.402 9.96094C268.324 9.8763 268.285 9.76725 268.285 9.63379V5.28809C268.285 5.15462 268.324 5.04557 268.402 4.96094C268.484 4.8763 268.586 4.83398 268.71 4.83398C268.834 4.83398 268.935 4.8763 269.013 4.96094C269.094 5.04557 269.135 5.15462 269.135 5.28809V9.63379C269.135 9.76725 269.094 9.8763 269.013 9.96094ZM272.387 10.0879C271.677 10.0879 271.107 9.85189 270.678 9.37988C270.248 8.90462 270.033 8.26497 270.033 7.46094C270.033 6.6569 270.248 6.01888 270.678 5.54688C271.107 5.07161 271.677 4.83398 272.387 4.83398C273.093 4.83398 273.661 5.07161 274.091 5.54688C274.521 6.01888 274.735 6.6569 274.735 7.46094C274.735 8.26172 274.521 8.89974 274.091 9.375C273.661 9.85026 273.093 10.0879 272.387 10.0879ZM271.298 8.84277C271.568 9.1748 271.931 9.34082 272.387 9.34082C272.842 9.34082 273.204 9.17643 273.471 8.84766C273.738 8.51562 273.871 8.05339 273.871 7.46094C273.871 6.86849 273.738 6.40788 273.471 6.0791C273.204 5.74707 272.842 5.58105 272.387 5.58105C271.931 5.58105 271.568 5.74707 271.298 6.0791C271.031 6.41113 270.897 6.87174 270.897 7.46094C270.897 8.05013 271.031 8.51074 271.298 8.84277ZM276.322 9.96094C276.244 10.0456 276.143 10.0879 276.02 10.0879C275.896 10.0879 275.793 10.0456 275.712 9.96094C275.634 9.8763 275.595 9.76725 275.595 9.63379V5.26367C275.595 5.13672 275.632 5.03418 275.707 4.95605C275.782 4.87467 275.878 4.83398 275.995 4.83398C276.112 4.83398 276.208 4.87467 276.283 4.95605C276.358 5.03418 276.396 5.13672 276.396 5.26367V5.73242H276.415C276.562 5.44922 276.771 5.22949 277.045 5.07324C277.318 4.91374 277.646 4.83398 278.026 4.83398C278.58 4.83398 279.011 5.00163 279.32 5.33691C279.63 5.66895 279.784 6.12467 279.784 6.7041V9.63379C279.784 9.76725 279.743 9.8763 279.662 9.96094C279.584 10.0456 279.483 10.0879 279.359 10.0879C279.236 10.0879 279.133 10.0456 279.052 9.96094C278.974 9.8763 278.935 9.76725 278.935 9.63379V6.85547C278.935 6.44206 278.837 6.12793 278.642 5.91309C278.446 5.69499 278.155 5.58594 277.768 5.58594C277.367 5.58594 277.047 5.71615 276.806 5.97656C276.565 6.23698 276.444 6.58203 276.444 7.01172V9.63379C276.444 9.76725 276.404 9.8763 276.322 9.96094Z" fill="#A4A4A4"/>
</svg>
