<svg width="126" height="27" viewBox="0 0 126 27" fill="none" xmlns="http://www.w3.org/2000/svg">
<rect width="126" height="27" rx="13.5" fill="#F85382"/>
<path d="M23.0547 14.7441C22.9668 15.4961 22.6885 16.0771 22.2197 16.4873C21.7542 16.8942 21.1341 17.0977 20.3594 17.0977C19.5195 17.0977 18.8457 16.7965 18.3379 16.1943C17.8333 15.5921 17.5811 14.7865 17.5811 13.7773V13.0938C17.5811 12.4329 17.6982 11.8519 17.9326 11.3506C18.1702 10.8493 18.5055 10.4652 18.9385 10.1982C19.3714 9.92806 19.8727 9.79297 20.4424 9.79297C21.1976 9.79297 21.8031 10.0046 22.2588 10.4277C22.7145 10.8477 22.9798 11.4303 23.0547 12.1758H22.1123C22.0309 11.6094 21.8535 11.1992 21.5801 10.9453C21.3099 10.6914 20.9307 10.5645 20.4424 10.5645C19.8434 10.5645 19.373 10.7858 19.0312 11.2285C18.6927 11.6712 18.5234 12.3011 18.5234 13.1182V13.8066C18.5234 14.5781 18.6846 15.1917 19.0068 15.6475C19.3291 16.1032 19.7799 16.3311 20.3594 16.3311C20.8802 16.3311 21.279 16.2139 21.5557 15.9795C21.8356 15.7419 22.0212 15.3301 22.1123 14.7441H23.0547ZM23.958 14.3096C23.958 13.792 24.0589 13.3265 24.2607 12.9131C24.4658 12.4997 24.749 12.1807 25.1104 11.9561C25.4749 11.7314 25.89 11.6191 26.3555 11.6191C27.0749 11.6191 27.6559 11.8682 28.0986 12.3662C28.5446 12.8643 28.7676 13.5267 28.7676 14.3535V14.417C28.7676 14.9313 28.6683 15.3936 28.4697 15.8037C28.2744 16.2106 27.9928 16.528 27.625 16.7559C27.2604 16.9837 26.8405 17.0977 26.3652 17.0977C25.6491 17.0977 25.068 16.8486 24.6221 16.3506C24.1794 15.8525 23.958 15.1934 23.958 14.373V14.3096ZM24.8662 14.417C24.8662 15.0029 25.0013 15.4733 25.2715 15.8281C25.5449 16.1829 25.9095 16.3604 26.3652 16.3604C26.8242 16.3604 27.1888 16.1813 27.459 15.8232C27.7292 15.4619 27.8643 14.9574 27.8643 14.3096C27.8643 13.7301 27.7259 13.2614 27.4492 12.9033C27.1758 12.542 26.8112 12.3613 26.3555 12.3613C25.9095 12.3613 25.5498 12.5387 25.2764 12.8936C25.0029 13.2484 24.8662 13.7562 24.8662 14.417ZM30.7549 11.7168L30.7842 12.3809C31.1878 11.873 31.7152 11.6191 32.3662 11.6191C33.4827 11.6191 34.0459 12.249 34.0557 13.5088V17H33.1523V13.5039C33.1491 13.123 33.0612 12.8415 32.8887 12.6592C32.7194 12.4769 32.4541 12.3857 32.0928 12.3857C31.7998 12.3857 31.5426 12.4639 31.3213 12.6201C31.0999 12.7764 30.9274 12.9814 30.8037 13.2354V17H29.9004V11.7168H30.7549ZM36.6436 10.4375V11.7168H37.6299V12.415H36.6436V15.6914C36.6436 15.903 36.6875 16.0625 36.7754 16.1699C36.8633 16.2741 37.013 16.3262 37.2246 16.3262C37.3288 16.3262 37.472 16.3066 37.6543 16.2676V17C37.4167 17.0651 37.1855 17.0977 36.9609 17.0977C36.5573 17.0977 36.2529 16.9756 36.0479 16.7314C35.8428 16.4873 35.7402 16.1406 35.7402 15.6914V12.415H34.7783V11.7168H35.7402V10.4375H36.6436ZM39.6709 17H38.7676V11.7168H39.6709V17ZM38.6943 10.3154C38.6943 10.1689 38.7383 10.0452 38.8262 9.94434C38.9173 9.84342 39.0508 9.79297 39.2266 9.79297C39.4023 9.79297 39.5358 9.84342 39.627 9.94434C39.7181 10.0452 39.7637 10.1689 39.7637 10.3154C39.7637 10.4619 39.7181 10.584 39.627 10.6816C39.5358 10.7793 39.4023 10.8281 39.2266 10.8281C39.0508 10.8281 38.9173 10.7793 38.8262 10.6816C38.7383 10.584 38.6943 10.4619 38.6943 10.3154ZM41.9756 11.7168L42.0049 12.3809C42.4085 11.873 42.9359 11.6191 43.5869 11.6191C44.7035 11.6191 45.2666 12.249 45.2764 13.5088V17H44.373V13.5039C44.3698 13.123 44.2819 12.8415 44.1094 12.6592C43.9401 12.4769 43.6748 12.3857 43.3135 12.3857C43.0205 12.3857 42.7633 12.4639 42.542 12.6201C42.3206 12.7764 42.1481 12.9814 42.0244 13.2354V17H41.1211V11.7168H41.9756ZM49.9004 16.4775C49.5488 16.891 49.0329 17.0977 48.3525 17.0977C47.7894 17.0977 47.3597 16.9349 47.0635 16.6094C46.7705 16.2806 46.6224 15.7956 46.6191 15.1543V11.7168H47.5225V15.1299C47.5225 15.9307 47.848 16.3311 48.499 16.3311C49.1891 16.3311 49.6481 16.0739 49.876 15.5596V11.7168H50.7793V17H49.9199L49.9004 16.4775ZM54.3486 17.0977C53.6325 17.0977 53.0498 16.8633 52.6006 16.3945C52.1514 15.9225 51.9268 15.2926 51.9268 14.5049V14.3389C51.9268 13.8148 52.026 13.3477 52.2246 12.9375C52.4264 12.5241 52.7064 12.2018 53.0645 11.9707C53.4258 11.7363 53.8164 11.6191 54.2363 11.6191C54.9232 11.6191 55.457 11.8454 55.8379 12.2979C56.2188 12.7503 56.4092 13.3981 56.4092 14.2412V14.6172H52.8301C52.8431 15.138 52.9945 15.5596 53.2842 15.8818C53.5771 16.2008 53.9482 16.3604 54.3975 16.3604C54.7165 16.3604 54.9867 16.2952 55.208 16.165C55.4294 16.0348 55.623 15.8623 55.7891 15.6475L56.3408 16.0771C55.8981 16.7575 55.234 17.0977 54.3486 17.0977ZM54.2363 12.3613C53.8717 12.3613 53.5658 12.4948 53.3184 12.7617C53.071 13.0254 52.918 13.3965 52.8594 13.875H55.5059V13.8066C55.4798 13.3477 55.3561 12.9928 55.1348 12.7422C54.9134 12.4883 54.6139 12.3613 54.2363 12.3613ZM61.165 10.4375V11.7168H62.1514V12.415H61.165V15.6914C61.165 15.903 61.209 16.0625 61.2969 16.1699C61.3848 16.2741 61.5345 16.3262 61.7461 16.3262C61.8503 16.3262 61.9935 16.3066 62.1758 16.2676V17C61.9382 17.0651 61.707 17.0977 61.4824 17.0977C61.0788 17.0977 60.7744 16.9756 60.5693 16.7314C60.3643 16.4873 60.2617 16.1406 60.2617 15.6914V12.415H59.2998V11.7168H60.2617V10.4375H61.165ZM62.874 14.3096C62.874 13.792 62.9749 13.3265 63.1768 12.9131C63.3818 12.4997 63.665 12.1807 64.0264 11.9561C64.391 11.7314 64.806 11.6191 65.2715 11.6191C65.9909 11.6191 66.5719 11.8682 67.0146 12.3662C67.4606 12.8643 67.6836 13.5267 67.6836 14.3535V14.417C67.6836 14.9313 67.5843 15.3936 67.3857 15.8037C67.1904 16.2106 66.9089 16.528 66.541 16.7559C66.1764 16.9837 65.7565 17.0977 65.2812 17.0977C64.5651 17.0977 63.984 16.8486 63.5381 16.3506C63.0954 15.8525 62.874 15.1934 62.874 14.373V14.3096ZM63.7822 14.417C63.7822 15.0029 63.9173 15.4733 64.1875 15.8281C64.4609 16.1829 64.8255 16.3604 65.2812 16.3604C65.7402 16.3604 66.1048 16.1813 66.375 15.8232C66.6452 15.4619 66.7803 14.9574 66.7803 14.3096C66.7803 13.7301 66.6419 13.2614 66.3652 12.9033C66.0918 12.542 65.7272 12.3613 65.2715 12.3613C64.8255 12.3613 64.4658 12.5387 64.1924 12.8936C63.9189 13.2484 63.7822 13.7562 63.7822 14.417ZM75.7598 14.417C75.7598 15.221 75.5758 15.8688 75.208 16.3604C74.8402 16.8519 74.3421 17.0977 73.7139 17.0977C73.0726 17.0977 72.568 16.8942 72.2002 16.4873V19.0312H71.2969V11.7168H72.1221L72.166 12.3027C72.5339 11.847 73.0449 11.6191 73.6992 11.6191C74.334 11.6191 74.8353 11.8584 75.2031 12.3369C75.5742 12.8154 75.7598 13.4811 75.7598 14.334V14.417ZM74.8564 14.3145C74.8564 13.7188 74.7295 13.2484 74.4756 12.9033C74.2217 12.5583 73.8734 12.3857 73.4307 12.3857C72.8838 12.3857 72.4736 12.6283 72.2002 13.1133V15.6377C72.4704 16.1195 72.8838 16.3604 73.4404 16.3604C73.8734 16.3604 74.2168 16.1895 74.4707 15.8477C74.7279 15.5026 74.8564 14.9915 74.8564 14.3145ZM80.1738 17C80.1217 16.8958 80.0794 16.7103 80.0469 16.4434C79.627 16.8796 79.1257 17.0977 78.543 17.0977C78.0221 17.0977 77.5941 16.9512 77.2588 16.6582C76.9268 16.362 76.7607 15.9876 76.7607 15.5352C76.7607 14.985 76.9691 14.5586 77.3857 14.2559C77.8057 13.9499 78.3949 13.7969 79.1533 13.7969H80.0322V13.3818C80.0322 13.0661 79.9378 12.8154 79.749 12.6299C79.5602 12.4411 79.2819 12.3467 78.9141 12.3467C78.5918 12.3467 78.3216 12.4281 78.1035 12.5908C77.8854 12.7536 77.7764 12.9505 77.7764 13.1816H76.8682C76.8682 12.918 76.9609 12.6641 77.1465 12.4199C77.3353 12.1725 77.5892 11.9772 77.9082 11.834C78.2305 11.6908 78.5837 11.6191 78.9678 11.6191C79.5765 11.6191 80.0534 11.7721 80.3984 12.0781C80.7435 12.3809 80.9225 12.7992 80.9355 13.333V15.7646C80.9355 16.2497 80.9974 16.6354 81.1211 16.9219V17H80.1738ZM78.6748 16.3115C78.958 16.3115 79.2266 16.2383 79.4805 16.0918C79.7344 15.9453 79.9183 15.7549 80.0322 15.5205V14.4365H79.3242C78.2174 14.4365 77.6641 14.7604 77.6641 15.4082C77.6641 15.6914 77.7585 15.9128 77.9473 16.0723C78.1361 16.2318 78.3786 16.3115 78.6748 16.3115ZM84.002 15.6768L85.2324 11.7168H86.1992L84.0752 17.8154C83.7464 18.6943 83.224 19.1338 82.5078 19.1338L82.3369 19.1191L82 19.0557V18.3232L82.2441 18.3428C82.5501 18.3428 82.7878 18.2809 82.957 18.1572C83.1296 18.0335 83.2712 17.8073 83.3818 17.4785L83.582 16.9414L81.6973 11.7168H82.6836L84.002 15.6768ZM87.8594 11.7168L87.8838 12.3027C88.2712 11.847 88.7936 11.6191 89.4512 11.6191C90.1901 11.6191 90.693 11.9023 90.96 12.4688C91.1357 12.2148 91.3636 12.0098 91.6436 11.8535C91.9268 11.6973 92.2604 11.6191 92.6445 11.6191C93.8034 11.6191 94.3926 12.2327 94.4121 13.46V17H93.5088V13.5137C93.5088 13.1361 93.4225 12.8545 93.25 12.6689C93.0775 12.4801 92.7878 12.3857 92.3809 12.3857C92.0456 12.3857 91.7673 12.4867 91.5459 12.6885C91.3245 12.887 91.196 13.1556 91.1602 13.4941V17H90.252V13.5381C90.252 12.7699 89.876 12.3857 89.124 12.3857C88.5316 12.3857 88.1263 12.638 87.9082 13.1426V17H87.0049V11.7168H87.8594ZM97.9717 17.0977C97.2555 17.0977 96.6729 16.8633 96.2236 16.3945C95.7744 15.9225 95.5498 15.2926 95.5498 14.5049V14.3389C95.5498 13.8148 95.6491 13.3477 95.8477 12.9375C96.0495 12.5241 96.3294 12.2018 96.6875 11.9707C97.0488 11.7363 97.4395 11.6191 97.8594 11.6191C98.5462 11.6191 99.0801 11.8454 99.4609 12.2979C99.8418 12.7503 100.032 13.3981 100.032 14.2412V14.6172H96.4531C96.4661 15.138 96.6175 15.5596 96.9072 15.8818C97.2002 16.2008 97.5713 16.3604 98.0205 16.3604C98.3395 16.3604 98.6097 16.2952 98.8311 16.165C99.0524 16.0348 99.2461 15.8623 99.4121 15.6475L99.9639 16.0771C99.5212 16.7575 98.8571 17.0977 97.9717 17.0977ZM97.8594 12.3613C97.4948 12.3613 97.1888 12.4948 96.9414 12.7617C96.694 13.0254 96.541 13.3965 96.4824 13.875H99.1289V13.8066C99.1029 13.3477 98.9792 12.9928 98.7578 12.7422C98.5365 12.4883 98.237 12.3613 97.8594 12.3613ZM101.937 11.7168L101.966 12.3809C102.369 11.873 102.897 11.6191 103.548 11.6191C104.664 11.6191 105.228 12.249 105.237 13.5088V17H104.334V13.5039C104.331 13.123 104.243 12.8415 104.07 12.6592C103.901 12.4769 103.636 12.3857 103.274 12.3857C102.981 12.3857 102.724 12.4639 102.503 12.6201C102.282 12.7764 102.109 12.9814 101.985 13.2354V17H101.082V11.7168H101.937ZM107.825 10.4375V11.7168H108.812V12.415H107.825V15.6914C107.825 15.903 107.869 16.0625 107.957 16.1699C108.045 16.2741 108.195 16.3262 108.406 16.3262C108.51 16.3262 108.654 16.3066 108.836 16.2676V17C108.598 17.0651 108.367 17.0977 108.143 17.0977C107.739 17.0977 107.435 16.9756 107.229 16.7314C107.024 16.4873 106.922 16.1406 106.922 15.6914V12.415H105.96V11.7168H106.922V10.4375H107.825Z" fill="white"/>
</svg>
