<svg xmlns="http://www.w3.org/2000/svg" width="362.046mm" height="126.236mm" viewBox="0 0 1026.272 357.833">
  <g>
    <path d="M255.555,792.956a30.846,30.846,0,0,1-37.614-43.833A30.875,30.875,0,1,1,256.186,735.2a30.849,30.849,0,0,1-.631,57.758m8.5-60.623a36.939,36.939,0,1,0-53.984,19.657,36.941,36.941,0,1,0,53.984-19.657" transform="translate(18.735 -449.122)" fill="#f09bba"/>
    <path d="M107.743,455.187a30.761,30.761,0,0,1,23.177,10.528,30.874,30.874,0,1,1,0,40.7,30.863,30.863,0,1,1-23.177-51.227m0,67.816a36.89,36.89,0,0,0,23.177-8.213,36.942,36.942,0,1,0,0-57.452A36.928,36.928,0,1,0,107.743,523" transform="translate(18.735 -449.122)" fill="#f09bba"/>
    <path d="M63.1,730.939a30.776,30.776,0,0,1-17.822,18.18,30.863,30.863,0,1,1-56.065,4.261A30.756,30.756,0,0,1,7.036,735.2a30.863,30.863,0,1,1,56.065-4.26M46.722,685.667A36.9,36.9,0,0,0-.834,732.331,36.888,36.888,0,0,0-16.485,751.3,36.935,36.935,0,0,0,5.591,798.651,36.906,36.906,0,0,0,53.15,751.985a36.894,36.894,0,0,0,15.65-18.97v0a36.939,36.939,0,0,0-22.078-47.346" transform="translate(18.735 -449.122)" fill="#f09bba"/>
    <path d="M153.574,702.2a30.778,30.778,0,0,1-23.177-10.53,30.878,30.878,0,1,1,0-40.7A30.864,30.864,0,1,1,153.574,702.2M62.93,638.572a30.847,30.847,0,0,1-.626-57.753,30.876,30.876,0,1,1,38.244,13.921A30.849,30.849,0,0,1,62.93,638.572m100.436-18.447a30.77,30.77,0,0,1,1.965-25.385,30.875,30.875,0,1,1,38.243-13.921,30.863,30.863,0,1,1-40.208,39.306m14.5,23.384a36.914,36.914,0,0,0,33.581-65.557,36.94,36.94,0,1,0-53.986,19.655,36.825,36.825,0,0,0,10.559,39.713A36.854,36.854,0,0,0,130.4,642.6a36.882,36.882,0,0,0-30.116-7.563,36.964,36.964,0,0,0,8.138-37.426,36.944,36.944,0,1,0-53.988-19.655,36.94,36.94,0,0,0,26.055,67.9,36.915,36.915,0,0,0,49.911,54.2,36.918,36.918,0,0,0,47.467-56.54" transform="translate(18.735 -449.122)" fill="#f09bba"/>
    <path d="M44.648,691.366A30.848,30.848,0,0,0,7.036,735.2a30.862,30.862,0,1,0,40.2,39.306,30.784,30.784,0,0,0-1.961-25.386,30.844,30.844,0,0,0-.631-57.753" transform="translate(18.735 -449.122)" fill="#fff"/>
    <path d="M99.918,536.987a30.844,30.844,0,0,0-37.613,43.832,30.874,30.874,0,1,0,38.243,13.921,30.846,30.846,0,0,0-.63-57.753" transform="translate(18.735 -449.122)" fill="#fff"/>
    <path d="M153.575,640.444a30.765,30.765,0,0,0-23.178,10.53,30.879,30.879,0,1,0,0,40.7,30.864,30.864,0,1,0,23.178-51.227" transform="translate(18.735 -449.122)" fill="#fff"/>
    <path d="M221.4,599a30.767,30.767,0,0,0-17.822-18.181,30.877,30.877,0,1,0-38.243,13.921A30.862,30.862,0,1,0,221.4,599" transform="translate(18.735 -449.122)" fill="#fff"/>
    <path d="M154.1,455.186a30.767,30.767,0,0,0-23.184,10.529,30.873,30.873,0,1,0,0,40.7A30.864,30.864,0,1,0,154.1,455.186" transform="translate(18.735 -449.122)" fill="#fff"/>
    <path d="M274.006,753.379a30.785,30.785,0,0,0-17.821-18.18,30.876,30.876,0,1,0-38.244,13.925,30.863,30.863,0,1,0,56.065,4.255" transform="translate(18.735 -449.122)" fill="#fff"/>
    <path d="M512.636,562.533c-19.711,0-33.055,19.408-33.055,62.773v20.318h.3c16.679,0,33.358-1.213,50.037-2.426v15.466c-12.434-.91-24.867-.91-37.3-.91h-13.04v62.167c0,58.528.91,65.5,41.546,66.412v8.491H415.9v-8.491c30.629-.909,34.268-7.884,34.268-66.412V683.53c0-26.079-2.426-26.686-34.571-26.686-20.924,0-41.545.607-53.069.91v62.167c0,58.528.909,65.5,41.546,66.412v8.491H298.843v-8.491c30.629-.909,34.267-7.884,34.267-66.412V684.44c0-26.383-2.426-26.989-34.571-26.989h-4.548V647.444l37.6-1.82c-.3-52.463,30.325-87.64,80.362-87.64,26.08,0,42.759,11.22,52.766,24.26,12.13-17.285,29.719-27.293,51.553-27.293,23.957,0,43.365,9.7,43.365,32.448,0,13.647-9.1,19.105-17.588,19.105-10.311,0-16.982-6.671-16.982-16.679,0-6.974,2.122-10.613,2.122-14.253,0-3.942.3-13.039-14.556-13.039m-102.5,217.9-5.929-.167c-20.139-.45-27.358-2.454-30.9-8.573-4.5-7.778-4.719-23.918-4.719-51.776V663.66c12.137-.323,29.334-.75,47-.75,12.082,0,22.514,0,25.74,2.378,2.325,1.717,2.765,7.736,2.765,18.243v36.39c0,27.5-.792,43.939-4.971,52.029-3.066,5.935-8.535,7.879-23.411,8.321ZM520.493,578.956A42.779,42.779,0,0,0,519,589.826c0,13.391,9.478,22.744,23.047,22.744a23.594,23.594,0,0,0,16.086-6.038c3.453-3.177,7.568-9.076,7.568-19.132,0-23.756-18.94-38.513-49.43-38.513-20.713,0-38.48,8.192-51.807,23.787-10.145-10.493-26.675-20.755-52.512-20.755-24.655,0-45.767,8.126-61.051,23.5-15.638,15.729-24.325,37.913-25.288,64.422l-37.692,1.824v21.851h10.614c12.074,0,22.5,0,25.714,2.4,2.346,1.75,2.792,7.862,2.792,18.527v35.48c0,27.5-.793,43.939-4.972,52.029-3.065,5.935-8.535,7.879-23.411,8.321l-5.885.175V800.89H527.192V780.4l-5.929-.132c-20.139-.45-27.358-2.454-30.9-8.573-4.5-7.778-4.72-23.918-4.72-51.776v-56.1h6.975c12.116,0,24.645,0,36.857.893l6.508.476V636.676l-6.5.473c-14.4,1.047-29.224,2.126-43.836,2.363V625.306c0-49.341,16.91-56.708,26.99-56.708,4.857,0,6.711,1.132,7.386,1.806,1.027,1.03,1.108,2.841,1.1,4.928v.241a17.251,17.251,0,0,1-.634,3.383" transform="translate(18.735 -449.122)" fill="#f09bba"/>
    <path d="M443.487,638.653c-26.346.034-43.59.319-60.3.6-4.9.08-9.7.16-14.6.23v-8.106c0-39.641,13.673-59.741,40.636-59.741,22.217,0,35.481,17.684,35.481,47.307a131.879,131.879,0,0,1-1.22,19.715m7.285-19.715c0-33.661-16.072-53.373-41.545-53.373-30.326,0-46.7,22.744-46.7,65.806v14.253c24.867-.3,45.185-.909,86.124-.909a132.131,132.131,0,0,0,2.123-25.777" transform="translate(18.735 -449.122)" fill="#f09bba"/>
    <path d="M362.525,645.625V631.372c0-43.062,16.376-65.806,46.7-65.806,25.473,0,41.545,19.711,41.545,53.372a132.207,132.207,0,0,1-2.122,25.777c-40.939,0-61.258.606-86.125.91m153.75-90.673c-21.834,0-39.423,10.007-51.553,27.293-10.008-13.04-26.686-24.261-52.766-24.261-50.037,0-80.665,35.178-80.362,87.641l-37.6,1.819v10.008h4.549c32.145,0,34.571.606,34.571,26.989v35.48c0,58.528-3.639,65.5-34.268,66.413v8.491H404.071v-8.491c-40.636-.91-41.546-7.885-41.546-66.413V657.755c11.524-.3,32.146-.91,53.07-.91,32.145,0,34.571.607,34.571,26.686v36.39c0,58.528-3.64,65.5-34.268,66.413v8.491H521.127v-8.491c-40.636-.91-41.546-7.885-41.546-66.413V657.755h13.04c12.433,0,24.867,0,37.3.909V643.2c-16.679,1.212-33.357,2.426-50.037,2.426h-.3V625.307c0-43.365,13.343-62.774,33.055-62.774,14.859,0,14.556,9.1,14.556,13.04,0,3.639-2.123,7.278-2.123,14.253,0,10.007,6.672,16.679,16.982,16.679,8.492,0,17.589-5.459,17.589-19.105,0-22.744-19.408-32.448-43.365-32.448" transform="translate(18.735 -449.122)" fill="#fff"/>
    <path d="M710.924,764.682A31.092,31.092,0,0,1,657.2,786.024c-.691.346-1.38.7-2.1,1a31.332,31.332,0,0,1-12.664,2.357,31.054,31.054,0,0,1-49.188-5.453,31.1,31.1,0,0,1-40.029-41.473,31.1,31.1,0,0,1,28.442-43.72c.351,0,.7.015,1.055.027a30.925,30.925,0,0,1,5.292-12.127,31.256,31.256,0,0,1,3.118-3.624,31.394,31.394,0,0,1-4.662-2.183,31.1,31.1,0,0,1,20.3-57.7,31.09,31.09,0,0,1,47.748,11.02,31.086,31.086,0,0,1,42.64,29.031,31.108,31.108,0,0,1-3.314,48.548,31.069,31.069,0,0,1,14.41,40.356,31.048,31.048,0,0,1,2.675,12.6m-7.167-53.637a37.179,37.179,0,0,0-.617-50.49,37.166,37.166,0,0,0-45.753-33.684,37.166,37.166,0,0,0-52.319-10.058,37.177,37.177,0,0,0-23.314,68.238,36.625,36.625,0,0,0-3.719,7.789,37.24,37.24,0,0,0-33.558,37.009,36.8,36.8,0,0,0,2.206,12.6,36.816,36.816,0,0,0-2.206,12.6,37.184,37.184,0,0,0,46.352,36.031,37.15,37.15,0,0,0,54.115,4.321,37.019,37.019,0,0,0,11.033-2.22,37.149,37.149,0,0,0,61.012-28.5,36.807,36.807,0,0,0-2.206-12.6,37.145,37.145,0,0,0-11.026-41.034" transform="translate(18.735 -449.122)" fill="#f09bba"/>
    <path d="M710.924,739.481a31.137,31.137,0,0,0-17.085-27.759,31.1,31.1,0,0,0,3.314-48.548,31.086,31.086,0,0,0-42.64-29.031,31.09,31.09,0,0,0-47.748-11.02,31.109,31.109,0,0,0-20.3,57.7,31.394,31.394,0,0,0,4.662,2.183,31.424,31.424,0,0,0-3.118,3.624,30.937,30.937,0,0,0-5.292,12.128c-.352-.012-.7-.028-1.055-.028a31.1,31.1,0,0,0-28.442,43.72,31.1,31.1,0,0,0,40.029,41.473,31.07,31.07,0,0,0,49.188,5.453A31.331,31.331,0,0,0,655.1,787.02c.722-.3,1.41-.65,2.1-1a31.1,31.1,0,0,0,51.05-33.946,31.015,31.015,0,0,0,2.675-12.6" transform="translate(18.735 -449.122)" fill="#fff"/>
    <path d="M829.228,604.989c-13.04,0-22.744-9.4-22.744-22.441,0-13.343,9.7-23.047,22.744-23.047s22.744,9.7,22.744,23.047c0,13.04-9.7,22.441-22.744,22.441m28.809-22.441c0-16.6-12.385-29.112-28.809-29.112s-28.809,12.515-28.809,29.112c0,16.251,12.385,28.506,28.809,28.506s28.809-12.255,28.809-28.506" transform="translate(18.735 -449.122)" fill="#f09bba"/>
    <path d="M820.131,759.344c-9.1,23.048-27.9,41.546-48.824,41.546-16.982,0-29.112-8.794-29.112-26.686,0-34.571,46.094-81.575,46.094-107.048,0-9.1-4.548-12.131-10.007-12.131-11.221,0-19.105,10.311-23.654,24.564l-8.794-3.336c7.278-23.957,23.047-38.513,43.972-38.513,18.5,0,30.325,9.7,30.325,25.17,0,29.719-45.791,75.51-45.791,105.835,0,9.1,3.942,14.253,10.614,14.253,10.31,0,19.408-12.737,26.382-28.2ZM805.808,752.3c-6.956,15.423-14.751,24.631-20.854,24.631-1.126,0-4.549,0-4.549-8.188,0-13.549,11.283-32.23,22.2-50.3,12.135-20.089,23.6-39.065,23.6-55.539,0-18.683-14.624-31.235-36.39-31.235-23.367,0-41.51,15.606-49.775,42.815l-1.648,5.423,20.077,7.616,1.947-6.1c2.423-7.6,7.97-20.343,17.875-20.343,1.756,0,3.942,0,3.942,6.066,0,10.083-9.94,26.617-19.551,42.606-13.05,21.709-26.543,44.157-26.543,64.442,0,20.2,13.479,32.751,35.177,32.751,22.2,0,43.582-17.814,54.465-45.384l2.012-5.1-19.345-10.006Z" transform="translate(18.735 -449.122)" fill="#f09bba"/>
    <path d="M978.728,684.138c-15.769,0-22.441-11.524-18.195-26.686-17.286,2.729-48.824,47-67.929,100.68l-12.13,38.816a62.039,62.039,0,0,0-18.5-2.729,71.432,71.432,0,0,0-17.589,2.123l33.661-75.814c12.13-26.989,20.318-44.881,20.318-54.282,0-6.975-3.942-11.22-11.22-11.22-11.221,0-19.409,11.22-23.654,24.563L855,676.253c6.065-23.35,23.35-38.513,43.365-38.513,15.163,0,26.99,7.581,26.99,24.26,0,6.975-2.123,14.557-5.156,22.138,13.343-20.925,34.874-46.4,58.225-46.4,13.949,0,23.047,8.491,23.047,22.138,0,12.736-8.794,24.26-22.744,24.26m-.3-52.463c-11.453,0-27.991,5.267-47.124,27.228-1.334-16.883-13.7-27.228-32.935-27.228-22.76,0-42.547,17.3-49.236,43.054l-1.352,5.2,19.528,7.671,1.966-6.177c3.128-9.83,9.466-20.336,17.874-20.336,3.757,0,5.155,1.4,5.155,5.155,0,7.792-7.8,25.148-18.6,49.169L833.8,805.24l12.058-3.015a65.623,65.623,0,0,1,16.118-1.941,56.16,56.16,0,0,1,16.672,2.447l5.8,1.833,13.91-44.51c16.417-46.072,40.113-80.359,54.92-92.191a23.97,23.97,0,0,0,4.652,13.19c3.167,4.174,9.344,9.15,20.8,9.15,16.425,0,28.809-13.038,28.809-30.325,0-16.869-11.7-28.2-29.112-28.2" transform="translate(18.735 -449.122)" fill="#f09bba"/>
    <path d="M784.953,783c-6.672,0-10.614-5.155-10.614-14.253,0-30.325,45.791-76.116,45.791-105.835,0-15.466-11.826-25.17-30.325-25.17-20.925,0-36.694,14.556-43.972,38.513l8.8,3.336c4.548-14.253,12.433-24.564,23.653-24.564,5.459,0,10.007,3.033,10.007,12.13,0,25.474-46.094,72.478-46.094,107.049,0,17.892,12.13,26.686,29.113,26.686,20.924,0,39.726-18.5,48.823-41.546l-8.794-4.548c-6.975,15.465-16.072,28.2-26.383,28.2" transform="translate(18.735 -449.122)" fill="#fff"/>
    <path d="M829.228,559.5c-13.04,0-22.744,9.7-22.744,23.047,0,13.04,9.7,22.441,22.744,22.441s22.744-9.4,22.744-22.441c0-13.343-9.7-23.047-22.744-23.047" transform="translate(18.735 -449.122)" fill="#fff"/>
    <path d="M978.425,637.74c-23.351,0-44.882,25.473-58.225,46.4,3.033-7.582,5.156-15.163,5.156-22.138,0-16.679-11.827-24.26-26.99-24.26-20.015,0-37.3,15.163-43.365,38.513l8.491,3.336c4.245-13.343,12.433-24.564,23.654-24.564,7.278,0,11.22,4.246,11.22,11.221,0,9.4-8.188,27.293-20.318,54.282l-33.661,75.813a71.478,71.478,0,0,1,17.589-2.122,62.039,62.039,0,0,1,18.5,2.729l12.13-38.817c19.1-53.675,50.643-97.95,67.929-100.68-4.246,15.163,2.426,26.687,18.195,26.687,13.95,0,22.744-11.524,22.744-24.261,0-13.646-9.1-22.137-23.047-22.137" transform="translate(18.735 -449.122)" fill="#fff"/>
  </g>
</svg>
