<?xml version="1.0" encoding="utf-8"?>
<!-- Generator: Adobe Illustrator 25.4.1, SVG Export Plug-In . SVG Version: 6.00 Build 0)  -->
<svg version="1.1" id="Layer_1" xmlns="http://www.w3.org/2000/svg" xmlns:xlink="http://www.w3.org/1999/xlink" x="0px" y="0px"
	 viewBox="0 0 192 192" style="enable-background:new 0 0 192 192;" xml:space="preserve">
<style type="text/css">
	.st0{fill:none;stroke:#000000;stroke-width:6;stroke-miterlimit:10;}
</style>
<g>
	<path class="st0" d="M154.79,130.66c1.38,3.11,2.12,6.5,2.12,9.97c0,13.58-11.05,24.63-24.62,24.63c-7.05,0-13.4-2.98-17.9-7.74
		c-0.55,0.27-1.09,0.55-1.66,0.79c-3.21,1.33-6.62,1.94-10.02,1.86c-2.34,2.46-5.19,4.45-8.4,5.77c-3.04,1.26-6.24,1.89-9.43,1.89
		c-3.19,0-6.38-0.63-9.42-1.88c-4.95-2.05-8.99-5.58-11.68-10.1c-2.84,1.14-5.93,1.78-9.17,1.78c-13.58,0-24.63-11.05-24.63-24.62
		c0-3.47,0.74-6.87,2.12-9.97c-1.38-3.11-2.12-6.5-2.12-9.97c0-13.58,11.05-24.63,24.63-24.63c0.28,0,0.56,0.01,0.83,0.02
		c0.68-3.42,2.08-6.69,4.19-9.6c0.75-1.03,1.59-1.98,2.47-2.87c-1.26-0.47-2.5-1.04-3.69-1.73c-5.7-3.28-9.78-8.59-11.49-14.94
		c-3.53-13.11,4.26-26.65,17.38-30.18c3.35-0.9,6.82-1.07,10.18-0.54c2.64-2.14,5.73-3.73,9.08-4.64
		c11.71-3.15,23.75,2.73,28.71,13.36c12.27-4.9,26.35,0.8,31.69,12.99c1.39,3.18,2.08,6.58,2.06,9.98c2.51,2.29,4.55,5.1,5.94,8.29
		c2.64,6.03,2.77,12.72,0.38,18.85c-1.81,4.64-4.92,8.53-8.94,11.29c8.01,4.07,13.52,12.38,13.52,21.97
		C156.91,124.16,156.17,127.55,154.79,130.66z"/>
</g>
</svg>
