<svg id="Component_6_1" data-name="Component 6 – 1" xmlns="http://www.w3.org/2000/svg" width="190.633" height="163.526" viewBox="0 0 190.633 163.526">
    <path id="Path_1" d="M801.47,14.921a5.3,5.3,0,0,1,2.516.656,118.016,118.016,0,0,0,11.783,5.985,13.319,13.319,0,0,0,5.139,1.03,14.57,14.57,0,0,0,3.965-.565,38.515,38.515,0,0,0,12.24-5.379,5.111,5.111,0,0,1,2.6-1c1.884-.167,3.762-.4,5.641-.61a4,4,0,0,1,.441-.025,2.223,2.223,0,0,1,1.911.918c.585.792-.107,1.389-.3,2.088-1.362,4.97-5.957,6.457-9.741,8.3-10.234,4.987-14.149,14.19-12.8,24.626.346,2.68.225,5.414.989,8.05,1.821,6.28,6,10.867,10.836,14.935,6.725,5.655,14.849,7.857,23.308,9.106a65.943,65.943,0,0,0,9.609.853,33.683,33.683,0,0,0,5.648-.45,19.73,19.73,0,0,0,8.76-3.819c3.2-2.43,6.773-4.347,9.246-7.716a123.522,123.522,0,0,0,9.244-14.9c1.923-3.592,4.438-6.661,8.5-8.087a2.062,2.062,0,0,1,.678-.124c.94,0,1.571.8,1.479,2.238-.1,1.632-.466,3.246-.586,4.878a47.641,47.641,0,0,1-3.843,16.664c-.711,1.544-1.684,2.987-2.236,4.581-1.644,4.748-2.211,9.514-.227,14.392a87.921,87.921,0,0,0,5.2,11.533,12.737,12.737,0,0,1,1.861,6.851,3.231,3.231,0,0,1-1.66,2.966,1.375,1.375,0,0,1-.7.223c-.657,0-1.024-.689-1.515-1.069a2.053,2.053,0,0,0-1.3-.452,2.844,2.844,0,0,0-.668.086,4.822,4.822,0,0,1-1.13.143,3.442,3.442,0,0,1-2.985-1.689c-1.019-1.539-3.139-1.694-4.04-3.445-1.009-1.962-3.082-2.961-4.572-4.5a4.275,4.275,0,0,0-3.113-1.535,4.228,4.228,0,0,0-.94.11,4.633,4.633,0,0,1-1.028.12c-2.11,0-3.438-1.621-4.724-3.149A6.925,6.925,0,0,0,882.72,95.8a16.853,16.853,0,0,1-3.4-2.169,6.351,6.351,0,0,0-4-1.532,5.437,5.437,0,0,0-.947.083,5.234,5.234,0,0,1-.92.077,17.717,17.717,0,0,1-2.634-.323,45.471,45.471,0,0,0-6.782-.556,26.682,26.682,0,0,0-12.757,2.979c-6.185,3.271-11.495,7.445-15.218,13.511-1.578,2.57-3.778,4.765-5.3,7.362-7.007,11.973-4.855,28.885,8.871,36.326.923.5,2.139.936,1.943,2.27a4.211,4.211,0,0,1-2.473,3.144,7.732,7.732,0,0,1-3.391.8,7.968,7.968,0,0,1-2.854-.544,40.457,40.457,0,0,0-7.588-2.315,24.287,24.287,0,0,0-4.053-.36,17.918,17.918,0,0,0-5.853.941,49.234,49.234,0,0,1-7.461,2.049,5.919,5.919,0,0,1-1.027.093,5.5,5.5,0,0,1-4.4-2.411c-1.258-1.6-.744-3.623-.192-5.439a2.746,2.746,0,0,1,2.134-1.689,14.411,14.411,0,0,0,7.749-5.446,12.731,12.731,0,0,1,2.486-2.567,8.657,8.657,0,0,0,3.407-6.892,67.63,67.63,0,0,1,.478-8.108c.8-4.974-.962-9.389-3.227-13.54-3.581-6.566-7.907-12.518-14.361-16.769a30.632,30.632,0,0,0-17.341-5.254c-.288,0-.577,0-.868.011a33.587,33.587,0,0,0-21.021,7.4c-5.013,4.088-10.236,7.944-14.832,12.536a4.153,4.153,0,0,1-2.948,1.233,4.2,4.2,0,0,1-2.423-.774,3.115,3.115,0,0,1-.92-4.508c2.93-5.092,3.864-10.776,5.092-16.368.678-3.082,1.442-6.135,2.256-9.181,1.839-6.876,1.315-13.355-3.187-19.209a8.7,8.7,0,0,1-1.606-6.095,2.26,2.26,0,0,1,2.181-2.276,2.5,2.5,0,0,1,1.186.316c1.837.987,3.694,1.909,5.6,2.749a4.458,4.458,0,0,1,2.2,2.725,38.807,38.807,0,0,0,3.416,6.741,18.987,18.987,0,0,1,2.161,5c2.085,7.084,7.472,10.654,14.075,12.778a21.538,21.538,0,0,0,6.671.954,66.415,66.415,0,0,0,7.777-.634c.751-.089,1.5-.186,2.259-.2a21.515,21.515,0,0,0,20.189-14.147c1.242-3.166,2.574-6.3,3.851-9.448a24.668,24.668,0,0,0,1.906-11.6c.412-6.143-1.446-11.405-4.875-16.532-2.886-4.315-5.948-7.864-10.946-9.614-2.095-.733-2.776-3.54-1.635-5.464a2.58,2.58,0,0,1,2.294-1m0-1.517h0a4,4,0,0,0-3.6,1.74,5.637,5.637,0,0,0-.423,4.76,4.757,4.757,0,0,0,2.863,2.911c4.5,1.574,7.323,4.746,10.185,9.025,3.514,5.254,4.983,10.207,4.622,15.587l-.008.12.011.119a22.971,22.971,0,0,1-1.8,10.9q-.719,1.774-1.454,3.542c-.8,1.934-1.624,3.934-2.4,5.922a20.86,20.86,0,0,1-7.34,9.573,20.651,20.651,0,0,1-11.47,3.611c-.766.017-1.5.1-2.22.19l-.184.022-.412.049a61.864,61.864,0,0,1-7.187.574,20.051,20.051,0,0,1-6.206-.881c-7.251-2.332-11.409-6.07-13.084-11.762a20.194,20.194,0,0,0-2.339-5.393,37.463,37.463,0,0,1-3.281-6.479,5.96,5.96,0,0,0-3-3.557c-1.779-.784-3.576-1.666-5.494-2.7a3.993,3.993,0,0,0-1.9-.5,3.756,3.756,0,0,0-3.694,3.686,10.148,10.148,0,0,0,1.917,7.128c3.848,5,4.8,10.857,2.923,17.892-.908,3.4-1.652,6.423-2.272,9.247-.16.726-.314,1.453-.469,2.181-1.041,4.9-2.024,9.529-4.457,13.756a4.639,4.639,0,0,0,1.361,6.506,5.677,5.677,0,0,0,7.318-.626,129.72,129.72,0,0,1,11-9.451c1.221-.972,2.484-1.977,3.716-2.982a32.232,32.232,0,0,1,20.1-7.059q.416-.01.827-.01a29.158,29.158,0,0,1,16.509,5c5.41,3.564,9.686,8.569,13.863,16.228,1.943,3.562,3.826,7.841,3.061,12.572a45.472,45.472,0,0,0-.435,6.214c-.016.682-.033,1.388-.06,2.074a7.174,7.174,0,0,1-2.8,5.742,14.124,14.124,0,0,0-2.783,2.865,12.821,12.821,0,0,1-6.944,4.9,4.155,4.155,0,0,0-3.18,2.71c-.512,1.686-1.369,4.508.452,6.819a6.982,6.982,0,0,0,5.592,2.989,7.47,7.47,0,0,0,1.288-.115,50.686,50.686,0,0,0,7.691-2.108,16.3,16.3,0,0,1,5.362-.86,22.634,22.634,0,0,1,3.8.339,38.571,38.571,0,0,1,7.3,2.237,9.506,9.506,0,0,0,3.394.643,9.248,9.248,0,0,0,4.052-.952,5.717,5.717,0,0,0,3.314-4.29c.33-2.251-1.525-3.206-2.417-3.665-.1-.053-.206-.106-.3-.159A22.208,22.208,0,0,1,829.3,136.4a26.885,26.885,0,0,1,2.773-20.4,33.3,33.3,0,0,1,2.628-3.669,39.351,39.351,0,0,0,2.654-3.665c3.24-5.278,7.89-9.4,14.634-12.964a25.149,25.149,0,0,1,12.047-2.8,43.742,43.742,0,0,1,6.556.539c.2.03.4.063.6.1a13.526,13.526,0,0,0,2.265.244,6.691,6.691,0,0,0,1.184-.1,3.932,3.932,0,0,1,.682-.06,4.843,4.843,0,0,1,3.031,1.184,18.445,18.445,0,0,0,3.7,2.362,5.446,5.446,0,0,1,1.754,1.55l.065.077c1.354,1.609,3.039,3.612,5.82,3.612a6.17,6.17,0,0,0,1.364-.158,2.743,2.743,0,0,1,.6-.072,2.813,2.813,0,0,1,2.022,1.072,18.876,18.876,0,0,0,1.895,1.649A8.451,8.451,0,0,1,898,107.39a6.259,6.259,0,0,0,2.712,2.507,4.155,4.155,0,0,1,1.412,1.082,4.939,4.939,0,0,0,4.25,2.369,6.361,6.361,0,0,0,1.486-.186,1.349,1.349,0,0,1,.312-.043.542.542,0,0,1,.369.135,3.211,3.211,0,0,1,.26.256,2.975,2.975,0,0,0,2.183,1.13,2.879,2.879,0,0,0,1.469-.434,4.753,4.753,0,0,0,2.406-4.235,14.29,14.29,0,0,0-2.069-7.656,69.939,69.939,0,0,1-4.365-9.5q-.368-.918-.74-1.836c-1.606-3.947-1.525-8.181.255-13.324a18.15,18.15,0,0,1,1.234-2.595c.32-.593.651-1.207.947-1.848,2.2-4.79,3.468-10.251,3.978-17.186.054-.737.162-1.475.276-2.257.125-.852.253-1.733.311-2.635a3.781,3.781,0,0,0-.894-2.958,2.844,2.844,0,0,0-2.1-.895,3.564,3.564,0,0,0-1.181.21c-5.1,1.791-7.774,5.881-9.337,8.8a121.958,121.958,0,0,1-9.129,14.715,25.429,25.429,0,0,1-6.354,5.549c-.852.594-1.733,1.208-2.586,1.857a18.334,18.334,0,0,1-8.1,3.531,32.014,32.014,0,0,1-5.394.429,65.221,65.221,0,0,1-9.387-.837c-7.273-1.074-15.64-2.954-22.553-8.766-7.312-6.148-9.375-10.816-10.355-14.2a23.365,23.365,0,0,1-.685-4.94c-.064-.939-.131-1.911-.256-2.882-1.351-10.459,2.9-18.651,11.961-23.067.472-.23.952-.452,1.461-.687,3.612-1.67,7.706-3.563,9.079-8.576a2.713,2.713,0,0,1,.14-.3,2.761,2.761,0,0,0-.084-3.086A3.73,3.73,0,0,0,845.8,13.5a5.547,5.547,0,0,0-.609.035q-.749.084-1.5.171c-1.349.155-2.744.315-4.11.436a6.635,6.635,0,0,0-3.354,1.275,37.407,37.407,0,0,1-11.768,5.152,13.069,13.069,0,0,1-3.552.508,11.826,11.826,0,0,1-4.558-.914,111.7,111.7,0,0,1-11.1-5.617l-.533-.295a6.828,6.828,0,0,0-3.25-.846" transform="matrix(0.995, 0.105, -0.105, 0.995, -717.813, -90.526)" fill="#19c5b4"/>
</svg>
