<svg class="icon" width="366" height="85" viewBox="0 0 366 85" xmlns="http://www.w3.org/2000/svg">
    <g fill="none" fill-rule="evenodd">
        <g class="logo__top">
            <path fill="#000" d="M0 40h244V0H0z"/>
        </g>
        <g class="logo__bottom">
            <path fill="#000" d="M122 85h244V45H122z"/>
            <path fill="#FFF" d="M226.543 53h4.929v20.4h8.728v4.039h-13.657V53M257.965 57.039h-8.728v5.75h8.215v4.039h-8.215V73.4h9.07v4.039h-13.999V53h13.657v4.039M267.207 70.046c0 .616.039 1.181.119 1.694.08.514.228.958.445 1.335s.514.674.89.89c.377.218.85.325 1.421.325.593 0 1.072-.107 1.437-.325.365-.216.656-.513.873-.89.217-.377.365-.821.445-1.335.08-.513.12-1.078.12-1.694V53h4.929v17.046c0 1.552-.217 2.836-.651 3.85-.433 1.016-1.015 1.821-1.745 2.414-.731.593-1.563.993-2.499 1.198-.936.205-1.906.308-2.909.308-1.005 0-1.975-.091-2.91-.274-.936-.183-1.769-.553-2.499-1.112-.73-.559-1.312-1.352-1.745-2.379-.434-1.028-.651-2.363-.651-4.005V53h4.93v17.046M290.379 71.073h.103L294.11 53h5.1l-5.613 24.439h-6.332L281.651 53h5.271l3.457 18.073M316.804 57.039h-8.728v5.75h8.215v4.039h-8.215V73.4h9.07v4.039h-14V53h13.658v4.039M333.097 69.738h.068V53h4.519v24.439h-5.615l-6.024-17.114h-.068v17.114h-4.518V53h5.682l5.956 16.738M158.079 53l3.491 17.25h.069L165.164 53h7.291v24.439h-4.518V57.928h-.069l-4.347 19.511h-3.833l-4.348-19.511h-.068v19.511h-4.519V53h7.326M177.863 77.439h4.929V53h-4.929zM200.864 70.593c0 2.602-.604 4.455-1.814 5.563-1.21 1.106-3.058 1.66-5.545 1.66-1.3 0-2.367-.178-3.2-.531-.833-.354-1.495-.856-1.986-1.506-.49-.651-.827-1.409-1.009-2.276-.183-.868-.274-1.78-.274-2.739v-1.06h4.518v.753c0 1.3.142 2.264.428 2.891.285.628.873.942 1.763.942.89 0 1.477-.314 1.763-.942.284-.627.428-1.591.428-2.891V53h4.928v17.593M217.602 69.738h.069V53h4.518v24.439h-5.614l-6.024-17.114h-.069v17.114h-4.518V53h5.682l5.956 16.738"/>
        </g>
    </g>
</svg>