<svg id="Component_5_1" data-name="Component 5 – 1" xmlns="http://www.w3.org/2000/svg" width="245.816" height="197.811" viewBox="0 0 245.816 197.811">
    <path id="Path_5" d="M81.062,1063.019c1.212,0,2.427.041,3.645.113,11.193.663,22.377,1.566,33.579,1.965q1.826.065,3.654.062c5.579,0,11.172-.384,16.758-.508,1.642-.036,3.294-.107,4.94-.107a24.375,24.375,0,0,1,8.723,1.289,48.689,48.689,0,0,1,10.168,4.926A230.322,230.322,0,0,0,195.6,1089.78a112.161,112.161,0,0,0,18.129,6.475,60.3,60.3,0,0,1,9.251,3.6c-3.9,2.365-7.762,4.794-11.707,7.08-8.935,5.178-18.077,10.021-26.825,15.495a109.552,109.552,0,0,0-24.089,20.851,67.792,67.792,0,0,1-16.962,14.348c-5.246,3.024-10.971,3.948-16.868,3.948h-.05c-12.605-.011-24.945-2.27-37.251-4.71a88.25,88.25,0,0,1-19.946-6.256,73.842,73.842,0,0,1-19.993-13.76c-5.15-4.9-10.319-9.8-15.662-14.488a239.161,239.161,0,0,0-25.437-19.585c-1.741-1.157-3.317-2.562-5.137-3.983,5.86-2.233,11.57-4.347,17.232-6.58a137.1,137.1,0,0,0,30.9-17.4c5.842-4.294,11.811-8.43,18.942-10.419a40.43,40.43,0,0,1,10.935-1.378m0-1.517a41.751,41.751,0,0,0-11.343,1.434c-7.34,2.047-13.38,6.209-19.433,10.658A134.793,134.793,0,0,1,19.73,1090.8c-3.881,1.53-7.705,2.975-11.754,4.5q-2.712,1.025-5.462,2.07L0,1098.334l2.12,1.656c.575.449,1.134.9,1.674,1.343,1.192.969,2.317,1.884,3.558,2.708A238.961,238.961,0,0,1,32.628,1123.5c5.258,4.616,10.388,9.468,15.617,14.446a75.722,75.722,0,0,0,20.4,14.039,89.266,89.266,0,0,0,20.287,6.367c12.563,2.491,24.888,4.729,37.545,4.74h.051c7.112,0,12.713-1.319,17.626-4.151a69.118,69.118,0,0,0,17.345-14.661,107.16,107.16,0,0,1,23.754-20.567c5.689-3.559,11.66-6.915,17.434-10.16,3.071-1.726,6.246-3.51,9.348-5.308,2.73-1.582,5.458-3.255,8.1-4.872q1.818-1.115,3.638-2.223l.971-.589-.291-1.1c-.2-.772-.764-1.023-1.878-1.524-.68-.306-1.572-.682-2.51-1.06a61,61,0,0,0-5.941-2.093,109.974,109.974,0,0,1-17.885-6.387,229.015,229.015,0,0,1-32.854-18.9,50.506,50.506,0,0,0-10.484-5.09,25.825,25.825,0,0,0-9.258-1.387c-1.136,0-2.282.033-3.39.064-.529.016-1.057.031-1.585.042-2.269.05-4.57.145-6.795.236-3.261.134-6.633.272-9.929.272-1.276,0-2.453-.02-3.6-.061-7.563-.269-15.257-.779-22.7-1.271-3.554-.235-7.229-.478-10.847-.692-1.311-.078-2.532-.115-3.735-.115" transform="matrix(0.875, -0.485, 0.485, 0.875, -514.626, -819.454)" fill="#19c5b4"/>
</svg>
