<svg id="Component_7_1" data-name="Component 7 – 1" xmlns="http://www.w3.org/2000/svg" width="177.294" height="156.877" viewBox="0 0 177.294 156.877">
    <path id="Path_3" d="M112.23,523.811a.19.19,0,0,1,.036,0,12.412,12.412,0,0,0,2.269.185c1.374,0,2.754-.148,4.139-.148a11.1,11.1,0,0,1,3.456.474,41.37,41.37,0,0,0,8.889,1.6c5.373.488,10.765.2,16.115,1.665,2.641.725,5.6.51,8.183,1.826,2.063,1.05,4.132,2.09,6.166,3.194,3.561,1.933,5.98,5.073,8.493,8.115,2.687,3.254,5.52,6.4,8.067,9.755,1.184,1.561,1.74,3.582,2.768,5.282,1.2,1.985,2.707,3.787,3.9,5.777,1.837,3.065,3.521,6.222,5.269,9.34,1.95,3.479,2.476,7.63,5.115,10.787.516.617.892,1.349,1.385,1.986,1.3,1.682,2.593,3.375,3.968,5a20.179,20.179,0,0,0,2.334,2.186c.755.646,1.565,1.228,2.67,2.086-3.787,2.6-5.1,6.353-6.7,9.987-.632,1.441-2.111,2.491-2.889,3.894a37.488,37.488,0,0,0-2.212,5.286c-.389,1.057-.285,2.421-.926,3.237-3.011,3.835-2.82,8.644-4.243,12.95-1.032,3.122-2.336,6.156-3.551,9.216-.892,2.244-1.806,4.48-2.775,6.692a8.119,8.119,0,0,1-1.169,1.7c-1.858,2.334-3.658,4.722-5.641,6.945a25.761,25.761,0,0,1-3.15,2.316c-3.046,2.487-5.946,5.169-9.123,7.473-1.519,1.1-3.535,1.519-5.325,2.248a4.646,4.646,0,0,0-1.529.667c-3.008,2.988-7.081,3.731-10.8,5.217-2.791,1.116-5.326,3.011-8.487,3.011q-.181,0-.365-.008c-3.568-.165-7.141-.552-10.7-.552q-.735,0-1.468.023c-1.889.063-3.876-.253-5.842,1.478a10.328,10.328,0,0,1-6.718,2.959,7.934,7.934,0,0,1-1.51-.146c-1.8-.347-2.943-.708-2.148-3.079-1.264-.191-2.353-.347-3.44-.522a54.64,54.64,0,0,1-6.776-1.168,56.36,56.36,0,0,1-6.376-2.7c-.289-.126-.664-.192-.841-.412-2.912-3.631-7.574-4.856-10.893-7.96-1.713-1.6-3.8-2.8-5.666-4.246a11.671,11.671,0,0,1-1.457-1.675c-.285-.328-.575-.906-.881-.918-2.335-.093-3.112-2.06-4.469-3.411-1.951-1.942-4.3-3.505-5.435-6.153a65.879,65.879,0,0,1-3.213-7.787c-1.149-4.055-1.823-8.242-2.831-12.341a11.019,11.019,0,0,0-1.533-2.786A23.587,23.587,0,0,1,52.311,619a92.414,92.414,0,0,1-4.2-11.84c-.632-2.634-2.326-4.287-3.6-6.379-2.263-3.718-5.938-4.813-9.6-6.119-.406-.145-.808-.3-1.562-.582.6-.66.97-1.469,1.533-1.635,5.031-1.482,8.5-4.93,11.773-8.79,2.366-2.787,5.2-5.172,7.621-7.919,1.068-1.214,1.562-2.916,2.419-4.335.964-1.6,2.039-3.126,3.074-4.679,1.248-1.873,2.539-3.717,3.741-5.618A24.885,24.885,0,0,0,64.93,558.3a23.5,23.5,0,0,1,1.054-2.418c2.736-4.447,5.513-8.868,8.289-13.29a19.54,19.54,0,0,1,8-6.869c4.111-2.156,8.4-4.266,11.76-7.705a7.058,7.058,0,0,1,2.6-1.072c.64-.236,1.327-.359,1.94-.646a17.866,17.866,0,0,1,7.661-1.849,15.656,15.656,0,0,1,1.678.09,4.232,4.232,0,0,0,.456.024,22.257,22.257,0,0,0,3.372-.564c.169-.027.341-.186.492-.186m0-1.518a1.966,1.966,0,0,0-.9.233c-.372.065-.735.146-1.088.224a9.245,9.245,0,0,1-1.878.293,2.761,2.761,0,0,1-.294-.015,17.311,17.311,0,0,0-1.84-.1,19.32,19.32,0,0,0-8.3,1.992,6.614,6.614,0,0,1-.925.313c-.288.083-.586.169-.9.283-.2.075-.446.144-.7.216a5.263,5.263,0,0,0-2.453,1.219c-2.952,3.021-6.787,5.023-10.5,6.96l-.884.462c-4.054,2.127-6.7,4.411-8.581,7.406l-.112.178c-2.7,4.292-5.482,8.73-8.184,13.123a10.03,10.03,0,0,0-.792,1.725c-.115.3-.224.588-.344.846q-.126.27-.25.542a17.943,17.943,0,0,1-1.075,2.1c-.794,1.255-1.648,2.516-2.474,3.736q-.627.924-1.248,1.852-.407.611-.82,1.219c-.767,1.135-1.561,2.309-2.29,3.517a19.889,19.889,0,0,0-.949,1.845,9.8,9.8,0,0,1-1.31,2.272C52.034,576,50.8,577.213,49.6,578.391c-1.381,1.359-2.808,2.765-4.1,4.287-3.439,4.052-6.633,7.016-11.045,8.316a3.565,3.565,0,0,0-1.788,1.51c-.151.205-.294.4-.442.563l-1.5,1.659,2.095.78.694.26c.357.134.621.234.888.329l.723.256c3.357,1.186,6.255,2.21,8.089,5.223.4.662.837,1.271,1.255,1.86a11.785,11.785,0,0,1,2.165,4.084,71.946,71.946,0,0,0,3.38,9.814c.3.741.592,1.482.881,2.224a12.057,12.057,0,0,0,1.459,2.51c.258.369.5.718.711,1.067.165.273.339.535.507.787a5.816,5.816,0,0,1,.852,1.578c.409,1.665.771,3.385,1.121,5.048.508,2.414,1.033,4.91,1.723,7.344a40.509,40.509,0,0,0,2.3,5.787c.329.717.668,1.458.98,2.184a15.224,15.224,0,0,0,4.285,5.258c.519.467,1.009.907,1.475,1.371a12.034,12.034,0,0,1,.862,1.005,6.229,6.229,0,0,0,4.072,2.8h0c.1.138.21.294.34.444s.264.325.406.51a7.088,7.088,0,0,0,1.267,1.37c.737.571,1.5,1.1,2.242,1.615a28.951,28.951,0,0,1,3.317,2.539,27.744,27.744,0,0,0,5.135,3.554,19.224,19.224,0,0,1,5.61,4.247,2.62,2.62,0,0,0,1.266.8c.053.018.106.035.154.056.62.27,1.255.567,1.868.855a33.208,33.208,0,0,0,4.684,1.909,32.708,32.708,0,0,0,4.976.928c.657.088,1.336.178,1.988.283.625.1,1.252.2,1.9.292a3.01,3.01,0,0,0,.394,1.564c.73,1.25,2.182,1.531,3.242,1.736a9.5,9.5,0,0,0,1.8.174c2.645,0,5.17-1.092,7.721-3.337,1.231-1.083,2.431-1.086,3.951-1.089.305,0,.62,0,.939-.012.454-.015.931-.023,1.418-.023,2.21,0,4.489.157,6.692.309,1.289.089,2.621.181,3.939.242q.219.01.435.01a14.978,14.978,0,0,0,6.763-2.06c.786-.389,1.53-.756,2.287-1.058.89-.356,1.793-.664,2.748-.991,2.962-1.012,6.024-2.059,8.525-4.526a4.026,4.026,0,0,1,.446-.157c.189-.059.4-.126.62-.215.519-.212,1.065-.4,1.642-.593a14.583,14.583,0,0,0,4-1.832c2.136-1.549,4.16-3.274,6.118-4.943,1-.856,2.042-1.741,3.074-2.583a12.024,12.024,0,0,1,1.155-.793,9.8,9.8,0,0,0,2.167-1.689c1.531-1.716,2.963-3.539,4.349-5.3q.671-.855,1.347-1.707l.158-.2a8.223,8.223,0,0,0,1.214-1.839c.864-1.973,1.752-4.115,2.795-6.74q.444-1.117.9-2.231c.929-2.292,1.889-4.662,2.684-7.069a38.059,38.059,0,0,0,1.117-4.63c.567-2.878,1.1-5.6,2.879-7.859a5.39,5.39,0,0,0,.923-2.586,6.337,6.337,0,0,1,.233-1.064l.214-.584a31.413,31.413,0,0,1,1.9-4.491,9.19,9.19,0,0,1,1.174-1.511,9.825,9.825,0,0,0,1.778-2.51q.241-.55.477-1.1c1.359-3.163,2.643-6.151,5.689-8.243l1.712-1.176-1.64-1.274c-.366-.284-.7-.538-1.01-.774-.606-.461-1.13-.86-1.6-1.266l-.266-.227a16.423,16.423,0,0,1-1.9-1.789c-1.192-1.4-2.35-2.9-3.469-4.352l-.456-.59c-.185-.239-.362-.513-.55-.8a11.991,11.991,0,0,0-.871-1.228,19.215,19.215,0,0,1-2.962-5.917,31.548,31.548,0,0,0-1.994-4.639q-.769-1.373-1.528-2.752c-1.206-2.183-2.453-4.44-3.763-6.626-.635-1.059-1.349-2.06-2.039-3.027-.669-.938-1.3-1.824-1.864-2.754a19.993,19.993,0,0,1-1.054-2.118,16.472,16.472,0,0,0-1.8-3.3c-1.711-2.256-3.565-4.435-5.358-6.542-.907-1.066-1.846-2.169-2.749-3.263l-.564-.685c-2.371-2.885-4.822-5.869-8.375-7.8-1.777-.964-3.6-1.89-5.364-2.786l-.838-.426a16.455,16.455,0,0,0-5.536-1.419,22.158,22.158,0,0,1-2.934-.518,51.7,51.7,0,0,0-11.492-1.415c-1.608-.074-3.271-.151-4.887-.3a40.081,40.081,0,0,1-8.562-1.529,12.516,12.516,0,0,0-3.922-.547c-.734,0-1.459.039-2.159.076s-1.335.072-1.98.072a10.819,10.819,0,0,1-1.993-.159,1.722,1.722,0,0,0-.311-.028" transform="translate(-30.728 -522.293)" fill="#19c5b4"/>
</svg>
