<svg class="icon" xmlns="http://www.w3.org/2000/svg" viewBox="0 0 512 512"><path d="M302.2 130.6c51.9-33.4 39.3-59.7 76.2-101.1-7 20 19.2 74.6-20.1 155.4 46.2-9.5 81.1-57.9 123.2-57.4-42.2 35.2-33.2 101.4-94.5 125.9 40.1 29.4 93.3 10.7 124.9 39.2-58.2 8.3-83.9 47.3-151.1 44.1 13.6 45.6 70.2 52.5 84.5 95.1-39.7-24.3-105.7 1.8-152.8-52.5-15.8 46.1 17.7 87 16 124-26-31.5-85.6-52.6-98.7-122.5-40.9 28.3-36 80.1-90.6 103.9 25.6-48.3 7.8-102.4 34.4-158.1-40-3.9-94.3 39.2-131.3 44.1 34.5-24.9 47.8-84.1 102.5-112.6C83.4 224.6 41.7 231.8 0 218.7c54.5-14.6 82.5-46.2 151.1-44-13.7-50.3-68.5-59.9-76.7-96.3 51.1 27.7 105.2 13.2 144.9 53.7 21-29.1-13.3-86.8.2-123.3 9.8 39.4 73.7 67.8 82.7 121.8"/></svg>