<svg id="Component_4_1" data-name="Component 4 – 1" xmlns="http://www.w3.org/2000/svg" width="223.614" height="152.915" viewBox="0 0 223.614 152.915">
    <path id="Vision-path" d="M169.347,1.522a4.079,4.079,0,0,1,2.5.9,13.091,13.091,0,0,1,2.676,2.9,2.436,2.436,0,0,1-.107,1.862c-.632,1.652-1.812,3.2-2.034,4.886q-1.587,12.069-2.733,24.193c-.439,4.581,1.684,8.079,5.221,10.907.841.673,1.166,1.968,1.788,2.939a25.123,25.123,0,0,0,7.108,7.2c1.65,1.127,3.239,2.343,4.893,3.466a20.851,20.851,0,0,0,11.988,3.687,27.146,27.146,0,0,0,5.884-.679,6.224,6.224,0,0,1,1.243-.23,1.1,1.1,0,0,1,.41.07,5.3,5.3,0,0,0,2.018.39c1.755,0,3.405-.785,5.124-1.172a45.247,45.247,0,0,1,9.936-1.409c.368,0,.738.008,1.109.025a9.95,9.95,0,0,1,4.007.876,2.772,2.772,0,0,0,1.121.2,3.144,3.144,0,0,0,2.264-.742c2.358-3.189,5.79-3.135,9.107-3.581a24.852,24.852,0,0,1,3.279-.319,7.067,7.067,0,0,1,3.817,1.013,1.761,1.761,0,0,0,.925.214c.882,0,1.978-.358,2.928-.358.058,0,.116,0,.174,0a2.205,2.205,0,0,1,1.708,1,2.377,2.377,0,0,1-.677,1.919,9.122,9.122,0,0,1-5.246,3.063c-.84.12-1.527,1.153-2.338,1.687a2.821,2.821,0,0,1-1.343.426c-.547.029-1.1.03-1.646.03h-.214c-.767,0-1.534,0-2.294.079-1.206.12-2.313.3-3.028,1.715a2.115,2.115,0,0,1-1.9,1.339A3.316,3.316,0,0,1,235,69.182a2.661,2.661,0,0,0-1.514-.557,1.257,1.257,0,0,0-.283.03c-3.59.824-7.15,1.779-10.725,2.674-5.548,1.39-11.073,2.891-16.658,4.113a52.293,52.293,0,0,0-15.152,5.729,9.645,9.645,0,0,0-4.464,5.144,35.088,35.088,0,0,1-6.644,11.35c-.251.281-.445.612-.677.911-4.739,6.119-4.359,9.273-.032,16.105a98.793,98.793,0,0,0,6.66,8.933,3.882,3.882,0,0,0,2.494,1.1c1.541.135,2.016.769,1.708,2.387a3.307,3.307,0,0,0,.334,2.459,2.784,2.784,0,0,1,.24,3.621,5.844,5.844,0,0,1-.47,1.027c-.789.912-1.566,2.377-2.48,2.481a.885.885,0,0,1-.1.005c-.838,0-2.01-1.165-2.653-2.057-2.156-2.99-4.061-6.161-6.219-9.149a4.527,4.527,0,0,0-2.549-1.569c-2.331-.494-4.866-.48-5.174-3.748-.026-.277-.591-.591-.964-.733-2.217-.84-4.436-1.682-6.684-2.433a8.526,8.526,0,0,0-2.731-.442c-2.4,0-4.662.946-6.938,1.852a7.661,7.661,0,0,0-4.834,4.666c-1.138,3.172-3.3,5.975-3.344,9.542-.028,2.26-.043,4.524-.2,6.777-.226,3.219-.549,6.432-.908,9.639a2.764,2.764,0,0,1-.818,1.408,2.882,2.882,0,0,1-2.063.951,2.335,2.335,0,0,1-2.261-1.832,14.253,14.253,0,0,1-.393-4.777c.3-4.264,1.069-8.517,1.053-12.772-.007-1.985-1.4-3.966-2.171-5.944-.16-.409-.562-.807-.54-1.192.132-2.383-1.694-2.917-3.285-3.925a30.1,30.1,0,0,0-16.541-4.409c-1.122,0-2.251.043-3.384.123a12.224,12.224,0,0,0-6.243,2.786c-6.438,5.145-12.638,10.587-18.973,15.863a3.93,3.93,0,0,1-2.4,1.08c-1.014,0-1.875-.715-2.438-2.288a2.452,2.452,0,0,1,.129-1.777c1.36-2.552,3.673-4.138,5.858-5.949,4.681-3.88,9.423-7.827,11.514-13.9a.423.423,0,0,1,.092-.165c3.02-2.917,1.485-6.18.527-9.261-.78-2.507-2.1-4.84-3.05-7.3-.719-1.863-1.134-3.842-1.849-5.707C94.767,84.738,92.649,79.6,86.8,77a28.886,28.886,0,0,0-7.732-2.052c-6.351-.948-12.722-1.838-19.01-3.117C55.169,70.838,50.4,69.284,45.571,68c-.837-.222-2.3-2.278-2.071-3.161a2.714,2.714,0,0,0-.638-.423c-2-.577-4-1.132-6-1.689-1.09-.3-2.032-.971-1.59-2.114a3.28,3.28,0,0,1,2.044-1.767,24.307,24.307,0,0,1,4.957-.469,80.921,80.921,0,0,1,8.535.679c8.146.869,16.3,1.682,24.444,2.534.683.072,1.349.3,2.032.395q5.74.838,11.485,1.644c1.746.242,3.5.5,5.253.595q.066,0,.133,0a3.607,3.607,0,0,0,1.887-.588c2.6-1.737,5.232-3.461,7.683-5.4a24.388,24.388,0,0,0,3.734-4c1.667-2.088,3.279-4.231,4.764-6.45.918-1.372,2.131-2.784.795-4.681a3.081,3.081,0,0,1-.03-2.039c.552-2.8-.315-5.337-1.2-7.92-.666-1.949-1.011-4.006-1.633-5.972-.31-.98-.973-1.841-1.381-2.8a13.322,13.322,0,0,1-1.212-3.4c-.258-2.043-.151-4.129-.315-6.187-.207-2.6,3.456-6.01,6.142-6.009a2.85,2.85,0,0,1,.535.049,10.4,10.4,0,0,1,5.274,3c2.982,2.791,4.6,6.544,7.326,9.544,2.714,2.982,4.543,6.77,6.758,10.2.068.106.107.23.176.335,1.835,2.831,2.313,3.863,3.893,3.863a18.11,18.11,0,0,0,3.793-.752,25.148,25.148,0,0,1,4.421-.976c3.114-.212,5.653-1.191,7.532-3.875,1.686-2.408,3.8-4.519,5.483-6.928.754-1.076.865-2.584,1.381-3.85.786-1.931,1.766-3.787,2.492-5.738,1.133-3.047,2.128-6.147,3.17-9.227a3.989,3.989,0,0,1,3.722-2.909m0-1.517h0a5.5,5.5,0,0,0-5.159,3.94q-.4,1.194-.8,2.391c-.748,2.24-1.521,4.556-2.353,6.794-.392,1.054-.86,2.074-1.355,3.155-.377.822-.767,1.673-1.12,2.539a13.91,13.91,0,0,0-.534,1.7,6.219,6.219,0,0,1-.685,1.849c-.8,1.149-1.706,2.222-2.66,3.358s-1.942,2.312-2.823,3.57c-1.442,2.058-3.353,3.025-6.392,3.231a18.548,18.548,0,0,0-3.684.748c-.337.093-.673.186-1.01.272a18.42,18.42,0,0,1-3.417.7c-.5,0-.687-.159-2.083-2.337-.159-.248-.33-.514-.514-.8l-.01-.022a2.761,2.761,0,0,0-.186-.346c-.658-1.02-1.3-2.1-1.918-3.148a43.409,43.409,0,0,0-4.993-7.256,34.561,34.561,0,0,1-3.069-4.134,30.282,30.282,0,0,0-4.343-5.5,11.871,11.871,0,0,0-6.025-3.383,4.387,4.387,0,0,0-.822-.076c-2.187,0-4.346,1.494-5.638,2.892a6.5,6.5,0,0,0-2.017,4.755c.066.834.086,1.67.107,2.554a36.247,36.247,0,0,0,.215,3.7,11.44,11.44,0,0,0,1.052,3.194c.092.206.183.41.27.615a13.464,13.464,0,0,0,.682,1.325,7.615,7.615,0,0,1,.648,1.333c.273.862.489,1.741.718,2.672.269,1.093.547,2.223.926,3.334.832,2.435,1.619,4.736,1.146,7.136a4.189,4.189,0,0,0,.278,3.206c.555.788.376,1.222-.566,2.6-.084.123-.168.245-.249.366-1.322,1.976-2.855,4.052-4.688,6.347a23.231,23.231,0,0,1-3.49,3.758c-2.208,1.747-4.624,3.357-6.961,4.914l-.622.415a2.124,2.124,0,0,1-1.044.332h-.05c-1.547-.085-3.147-.307-4.692-.522l-.435-.061c-3.994-.553-8.017-1.138-11.474-1.643-.246-.036-.511-.1-.793-.162a10.689,10.689,0,0,0-1.3-.241q-5.055-.529-10.111-1.044c-4.7-.482-9.556-.98-14.331-1.489q-.691-.074-1.382-.151a66.6,66.6,0,0,0-7.314-.537,25.707,25.707,0,0,0-5.265.5,4.77,4.77,0,0,0-3.151,2.705,2.761,2.761,0,0,0,.07,2.3,3.819,3.819,0,0,0,2.528,1.824l.425.118c1.7.473,3.454.961,5.18,1.457a5.562,5.562,0,0,0,3.119,3.7c1.562.415,3.15.868,4.687,1.306,3.213.916,6.535,1.864,9.884,2.545,5.507,1.12,11.147,1.955,16.6,2.761l2.488.369a27.673,27.673,0,0,1,7.339,1.938c5.065,2.252,7.013,6.482,9.212,12.213.334.871.6,1.771.88,2.724.288.979.587,1.991.97,2.985.405,1.051.873,2.075,1.326,3.066a35.3,35.3,0,0,1,1.69,4.14c.1.328.211.659.32.99.973,2.962,1.471,4.871-.452,6.729a1.881,1.881,0,0,0-.472.762c-1.96,5.694-6.58,9.523-11.047,13.225-.342.284-.687.561-1.031.838a18.465,18.465,0,0,0-5.2,5.565,3.939,3.939,0,0,0-.218,3c1.026,2.866,2.863,3.294,3.867,3.294A5.342,5.342,0,0,0,89.4,136.49c2.284-1.9,4.585-3.855,6.811-5.744,3.949-3.352,8.033-6.818,12.138-10.1a10.624,10.624,0,0,1,5.4-2.458c1.125-.079,2.228-.119,3.277-.119a28.528,28.528,0,0,1,15.729,4.174c.3.191.6.359.884.522,1.423.809,1.75,1.094,1.7,2.037a2.722,2.722,0,0,0,.519,1.62c.043.07.109.176.126.215.257.657.571,1.3.874,1.925a8.973,8.973,0,0,1,1.189,3.466,68.719,68.719,0,0,1-.573,7.775c-.178,1.6-.363,3.245-.476,4.885a15.588,15.588,0,0,0,.447,5.294,3.849,3.849,0,0,0,3.722,2.937,4.378,4.378,0,0,0,3.16-1.42,4.058,4.058,0,0,0,1.23-2.289c.425-3.789.715-6.872.914-9.7.148-2.1.173-4.215.2-6.264l.007-.6a14.118,14.118,0,0,1,1.864-5.878,32.882,32.882,0,0,0,1.392-3.17,6.134,6.134,0,0,1,3.966-3.768l.285-.114a17.008,17.008,0,0,1,6.092-1.631,6.984,6.984,0,0,1,2.25.364c2.2.734,4.42,1.576,6.567,2.39l.06.022.067.028c.606,3.477,3.491,4,5.433,4.354.3.055.583.106.862.165a3.035,3.035,0,0,1,1.633.973c1.066,1.476,2.094,3.036,3.09,4.545s2.038,3.09,3.128,4.6c.454.631,2.077,2.687,3.884,2.687a2.4,2.4,0,0,0,.267-.015c1.322-.151,2.155-1.274,2.889-2.265.2-.272.391-.528.566-.73a3.134,3.134,0,0,0,.575-1.084c.025-.072.06-.171.077-.2a4.322,4.322,0,0,0-.393-5.312,2.694,2.694,0,0,1-.019-1.216,3.673,3.673,0,0,0-.456-2.967,3.594,3.594,0,0,0-2.61-1.214,2.608,2.608,0,0,1-1.445-.542l-.1-.119a96.8,96.8,0,0,1-6.464-8.674c-4.181-6.6-4.19-9.019-.05-14.365.115-.149.217-.3.308-.426a4.6,4.6,0,0,1,.3-.4,36.452,36.452,0,0,0,6.935-11.832,8.125,8.125,0,0,1,3.8-4.36,50.669,50.669,0,0,1,14.718-5.562c4.023-.88,8.068-1.917,11.979-2.921,1.548-.4,3.149-.808,4.724-1.2q1.679-.421,3.355-.853c2.391-.612,4.863-1.245,7.3-1.805a1.252,1.252,0,0,1,.544.219,4.791,4.791,0,0,0,2.967,1.183,3.636,3.636,0,0,0,3.253-2.17c.331-.654.687-.777,1.825-.891.664-.066,1.335-.072,2.143-.072h.214c.606,0,1.154,0,1.726-.033a4.339,4.339,0,0,0,2.1-.673,7.983,7.983,0,0,0,1.064-.884,4.445,4.445,0,0,1,.688-.574,10.692,10.692,0,0,0,6.079-3.5,3.769,3.769,0,0,0,1.041-3.449,3.626,3.626,0,0,0-3.077-2.052c-.082,0-.165-.006-.25-.006a10.247,10.247,0,0,0-1.784.208,7.519,7.519,0,0,1-1.145.15.892.892,0,0,1-.168-.012,8.512,8.512,0,0,0-4.573-1.214,22.579,22.579,0,0,0-3.07.277l-.411.056c-.424.057-.863.107-1.289.155-2.973.338-6.34.722-8.773,3.943a2.749,2.749,0,0,1-1.107.211,1.553,1.553,0,0,1-.486-.057,11.528,11.528,0,0,0-4.574-1.014c-.386-.017-.782-.026-1.176-.026a46.4,46.4,0,0,0-10.268,1.446c-.641.144-1.255.333-1.848.515a10.424,10.424,0,0,1-2.944.62,3.793,3.793,0,0,1-1.449-.279,2.6,2.6,0,0,0-.979-.181,5.476,5.476,0,0,0-1.313.2c-.088.022-.175.043-.259.062a25.749,25.749,0,0,1-5.556.643,19.233,19.233,0,0,1-11.136-3.425c-.83-.563-1.665-1.167-2.474-1.75-.784-.566-1.595-1.152-2.415-1.712a23.449,23.449,0,0,1-6.686-6.77,9.025,9.025,0,0,1-.5-.954,6.239,6.239,0,0,0-1.621-2.351c-3.485-2.786-5.009-5.919-4.658-9.577.794-8.294,1.711-16.416,2.727-24.141a8.639,8.639,0,0,1,1.03-2.59,19.3,19.3,0,0,0,.916-1.95,3.74,3.74,0,0,0-.064-3.269,14.488,14.488,0,0,0-3-3.238A5.59,5.59,0,0,0,169.347,0" transform="translate(-33.644 -0.005)" fill="#19c5b4"/>
</svg>

